<svg height="464pt" viewBox="0 -28 464 464" width="464pt" xmlns="http://www.w3.org/2000/svg"><path d="m448 32h-144c-8.824219.027344-15.972656 7.175781-16 16v304h176v-304c-.027344-8.824219-7.175781-15.972656-16-16zm0 0" fill="#898890"/><path d="m328 128h104v32h-104zm0 0" fill="#ffc477"/><path d="m320 64h112v32h-112zm0 0" fill="#ffc477"/><path d="m464 352v32c-.027344 8.824219-7.175781 15.972656-16 16h-144c-8.824219-.027344-15.972656-7.175781-16-16v-32zm0 0" fill="#c6c5ca"/><path d="m416 240c0 22.089844-17.910156 40-40 40s-40-17.910156-40-40 17.910156-40 40-40 40 17.910156 40 40zm0 0" fill="#ff7956"/><path d="m352 96v160h-352v-160c0-17.671875 14.328125-32 32-32h288c2.421875.019531 4.832031.289062 7.199219.800781 14.527343 3.351563 24.808593 16.292969 24.800781 31.199219zm0 0" fill="#78b9eb"/><path d="m352 96v160h-216l191.199219-191.199219c14.527343 3.351563 24.808593 16.292969 24.800781 31.199219zm0 0" fill="#5aaae7"/><path d="m240 368v32h-128v-32zm0 0" fill="#787680"/><path d="m128 304h96v64h-96zm0 0" fill="#898890"/><path d="m352 256v16c0 17.671875-14.328125 32-32 32h-288c-17.671875 0-32-14.328125-32-32v-16zm0 0" fill="#acabb1"/><path d="m288 48v160c-.027344 8.824219-7.175781 15.972656-16 16h-192c-8.824219-.027344-15.972656-7.175781-16-16v-160zm0 0" fill="#ffde55"/><path d="m288 16v32h-224v-32c.027344-8.824219 7.175781-15.9726562 16-16h192c8.824219.0273438 15.972656 7.175781 16 16zm0 0" fill="#ff7956"/><path d="m144 24c0 4.417969-3.582031 8-8 8s-8-3.582031-8-8 3.582031-8 8-8 8 3.582031 8 8zm0 0" fill="#ffa733"/><path d="m120 24c0 4.417969-3.582031 8-8 8s-8-3.582031-8-8 3.582031-8 8-8 8 3.582031 8 8zm0 0" fill="#00ccb3"/><path d="m96 24c0 4.417969-3.582031 8-8 8s-8-3.582031-8-8 3.582031-8 8-8 8 3.582031 8 8zm0 0" fill="#ffd422"/><path d="m128 304h96v16h-96zm0 0" fill="#787680"/><path d="m88 392h176v16h-176zm0 0" fill="#57565c"/><path d="m104 88h16v16h-16zm0 0" fill="#898890"/><g fill="#acabb1"><path d="m136 88h64v16h-64zm0 0"/><path d="m216 88h32v16h-32zm0 0"/><path d="m104 128h96v16h-96zm0 0"/></g><path d="m216 128h32v16h-32zm0 0" fill="#898890"/><path d="m104 168h144v16h-144zm0 0" fill="#898890"/></svg>