<svg xmlns="http://www.w3.org/2000/svg" xmlns:xlink="http://www.w3.org/1999/xlink" viewBox="0 0 317.2 271.44"><defs><style>.cls-1{fill:#bcbef9;}.cls-2{fill:#333;}.cls-19,.cls-3,.cls-6,.cls-8{fill:none;stroke-miterlimit:10;}.cls-19,.cls-3,.cls-8{stroke:#747bfd;}.cls-3{stroke-dasharray:5 5;}.cls-4{fill:#f7327a;}.cls-11,.cls-5{fill:#fff;}.cls-6{stroke:#fff;}.cls-7{clip-path:url(#clip-path);}.cls-9{clip-path:url(#clip-path-2);}.cls-10{fill:#f9c03b;}.cls-11,.cls-14,.cls-26{opacity:0.2;}.cls-12,.cls-14,.cls-23{fill:#231f20;}.cls-12{opacity:0.1;}.cls-13{fill:#0a1e7d;}.cls-15{fill:#e99d86;}.cls-16{fill:#c46623;}.cls-17{fill:#e42568;}.cls-18{fill:#747bfd;}.cls-19{stroke-width:3px;}.cls-20{fill:#f7c6b5;}.cls-21{clip-path:url(#clip-path-3);}.cls-22{fill:#c94958;}.cls-24{fill:#95a6ef;}.cls-25{fill:#f4b395;}</style><clipPath id="clip-path"><path class="cls-1" d="M282.55,134.59a26,26,0,0,1,14.25-6.21c2.63-.25,5.5.06,7.47,1.81,5.18,4.61,4.65,15.59,4.56,22-.22,15.41-4.13,30.61-10.27,44.7A151.91,151.91,0,0,1,287.89,217c-1.86,2.95-3.83,5.84-5.62,8.84-.75,1.26-5.77,9.06-4.82,10.31-4.37-5.76-6.81-12.8-8.05-19.93-1.83-10.54-3.81-21.4-3.27-32.29a128.07,128.07,0,0,1,5.67-33.08A36,36,0,0,1,282.55,134.59Z"/></clipPath><clipPath id="clip-path-2"><path class="cls-1" d="M260.48,169.29a17.1,17.1,0,0,0-10-2.34,6.43,6.43,0,0,0-4.63,2.06c-2.81,3.61-1.17,10.66-.35,14.81a77.11,77.11,0,0,0,12,27.77,101.76,101.76,0,0,0,9.31,11.79c1.56,1.69,3.18,3.33,4.7,5.07.63.72,4.82,5.19,4.35,6.11a30,30,0,0,0,2.85-13.88c-.06-7.05-.07-14.34-1.71-21.33a84.79,84.79,0,0,0-7.61-20.78A23.63,23.63,0,0,0,260.48,169.29Z"/></clipPath><clipPath id="clip-path-3"><path class="cls-2" d="M193.3,159.11a7.86,7.86,0,0,0,7.86,7.87h0a7.86,7.86,0,0,0,7.86-7.87"/></clipPath></defs><title>Ativo 1</title><g id="Camada_2" data-name="Camada 2"><g id="OBJECTS"><path class="cls-3" d="M256.09,234.19C300.13,217.11,315,161,297.27,120c-5.89-13.62-15.34-25.78-25.59-36.39-4.58-4.74-9.37-9.36-13.08-14.81-4.18-6.12-5.68-12.38-6.3-19.64-.54-6.35-.64-13.86-6.57-17.78-13.23-8.75-23.37,10.72-30.36,18.1-6.09,6.43-14.9,10-23.73,10.4a49.54,49.54,0,0,1-25.49-6.18C160.68,50.82,155.22,47,149,47.11,132.87,47.49,126.23,66,122.49,79c-3.65,12.74-7.59,28.33-20.2,35.19-8.36,4.55-18.43,3.9-27.94,4-16.39.25-34.13,3.89-45.89,16.16-12.35,12.88-17.33,32-11.84,49.11,6.23,19.4,31.26,44.35,53.13,41.58"/><rect class="cls-4" x="59.55" y="80.18" width="83.74" height="50.63" rx="12"/><polygon class="cls-4" points="133.8 130.81 158.14 130.81 143.29 114.05 133.8 130.81"/><rect class="cls-5" x="69.06" y="90.47" width="64.72" height="5.34" rx="2.67"/><path class="cls-5" d="M131.11,108.16H71.73a2.68,2.68,0,0,1-2.67-2.67h0a2.67,2.67,0,0,1,2.67-2.66h59.38a2.67,2.67,0,0,1,2.67,2.66h0A2.68,2.68,0,0,1,131.11,108.16Z"/><path class="cls-5" d="M98.75,120.52h-27a2.68,2.68,0,0,1-2.67-2.67h0a2.68,2.68,0,0,1,2.67-2.67h27a2.68,2.68,0,0,1,2.67,2.67h0A2.68,2.68,0,0,1,98.75,120.52Z"/><rect class="cls-4" x="167.51" y="41.96" width="42.55" height="28.39" rx="2"/><path class="cls-6" d="M168.2,42.88l18.62,18.06a2.87,2.87,0,0,0,3.92,0l18.63-18.06"/><line class="cls-6" x1="168.2" y1="69.44" x2="183.48" y2="57.7"/><line class="cls-6" x1="209.37" y1="69.44" x2="194.08" y2="57.7"/><rect class="cls-1" x="283.03" y="13.15" width="25.72" height="17.16" rx="2"/><path class="cls-6" d="M283.45,13.7l11.26,10.92a1.72,1.72,0,0,0,2.37,0L308.34,13.7"/><line class="cls-6" x1="283.45" y1="29.76" x2="292.69" y2="22.66"/><line class="cls-6" x1="308.34" y1="29.76" x2="299.1" y2="22.66"/><rect class="cls-1" x="59.35" y="141.6" width="25.72" height="17.16" rx="2"/><path class="cls-6" d="M59.76,142.15,71,153.07a1.72,1.72,0,0,0,2.37,0l11.26-10.92"/><line class="cls-6" x1="59.76" y1="158.21" x2="69" y2="151.11"/><line class="cls-6" x1="84.65" y1="158.21" x2="75.41" y2="151.11"/><circle class="cls-4" cx="261.1" cy="65.08" r="19.58" transform="translate(119.44 293.86) rotate(-72.23)"/><path class="cls-5" d="M256.79,63.5l.71-.78a3.27,3.27,0,0,0,.84-2.37,3.23,3.23,0,0,0-1.07-2.26L256.07,57a3.32,3.32,0,0,0-2.2-.84,3.27,3.27,0,0,0-2.43,1.08l-.71.78a2.91,2.91,0,0,0-.26.33l0,0a4,4,0,0,0-.91,3.69,18.36,18.36,0,0,0,16.33,14.76,4.59,4.59,0,0,0,2.81-.58,3.17,3.17,0,0,0,.8-.65l.72-.79a3.27,3.27,0,0,0-.24-4.62l-1.2-1.09a3.29,3.29,0,0,0-4.62.23l-.72.79a3.34,3.34,0,0,0-.67,1.15l-.06.19-.19-.07a13.75,13.75,0,0,1-7.29-6.69l-.1-.2.21-.07A3.22,3.22,0,0,0,256.79,63.5Z"/><path class="cls-5" d="M260.78,54.06a.77.77,0,0,0,.77.76,9.71,9.71,0,0,1,9.7,9.7.77.77,0,1,0,1.53,0,11.25,11.25,0,0,0-11.23-11.23A.78.78,0,0,0,260.78,54.06Z"/><path class="cls-5" d="M260.66,57.79a.77.77,0,0,0,.76.77,6.1,6.1,0,0,1,6.1,6.09.76.76,0,1,0,1.52,0A7.62,7.62,0,0,0,261.42,57,.76.76,0,0,0,260.66,57.79Z"/><circle class="cls-1" cx="145.52" cy="162.81" r="12.63" transform="translate(-72.5 150.58) rotate(-45)"/><path class="cls-5" d="M142.74,161.79l.46-.51a2.1,2.1,0,0,0,.54-1.52,2.15,2.15,0,0,0-.69-1.46l-.78-.7a2.1,2.1,0,0,0-3,.15l-.46.51a1.2,1.2,0,0,0-.17.21l0,0a2.58,2.58,0,0,0-.59,2.38,11.86,11.86,0,0,0,10.53,9.53,3,3,0,0,0,1.82-.38,1.88,1.88,0,0,0,.51-.42l.46-.5a2.12,2.12,0,0,0-.15-3l-.77-.7a2.12,2.12,0,0,0-1.42-.55,2.15,2.15,0,0,0-1.57.7l-.45.51a2.08,2.08,0,0,0-.44.74l0,.12-.12,0a8.9,8.9,0,0,1-4.7-4.32l-.07-.13.14,0A2.08,2.08,0,0,0,142.74,161.79Z"/><path class="cls-5" d="M145.32,155.7a.49.49,0,0,0,.49.49,6.27,6.27,0,0,1,6.26,6.26.49.49,0,0,0,1,0,7.25,7.25,0,0,0-7.24-7.24A.49.49,0,0,0,145.32,155.7Z"/><path class="cls-5" d="M145.24,158.11a.49.49,0,0,0,.49.49,3.93,3.93,0,0,1,3.93,3.93.49.49,0,0,0,1,0,4.91,4.91,0,0,0-4.91-4.91A.49.49,0,0,0,145.24,158.11Z"/><circle class="cls-1" cx="271.02" cy="118.39" r="11.72" transform="translate(1.98 241.23) rotate(-48.14)"/><path class="cls-5" d="M268.44,117.45l.42-.47a2,2,0,0,0,.51-1.42,2,2,0,0,0-.65-1.35l-.72-.65a1.92,1.92,0,0,0-1.31-.51,2,2,0,0,0-1.45.65l-.43.47a1.56,1.56,0,0,0-.16.2l0,0a2.39,2.39,0,0,0-.54,2.21,11,11,0,0,0,9.77,8.84,2.81,2.81,0,0,0,1.69-.35,2.28,2.28,0,0,0,.48-.39l.42-.47a2,2,0,0,0-.14-2.77l-.71-.65a2,2,0,0,0-2.77.14l-.43.47a1.84,1.84,0,0,0-.4.69l0,.11-.12,0a8.26,8.26,0,0,1-4.36-4l-.06-.12.13,0A1.91,1.91,0,0,0,268.44,117.45Z"/><path class="cls-5" d="M270.83,111.79a.46.46,0,0,0,.46.46,5.82,5.82,0,0,1,5.81,5.81.46.46,0,1,0,.91,0,6.72,6.72,0,0,0-6.72-6.72A.46.46,0,0,0,270.83,111.79Z"/><path class="cls-5" d="M270.76,114a.46.46,0,0,0,.45.46,3.64,3.64,0,0,1,3.65,3.64.46.46,0,1,0,.92,0,4.57,4.57,0,0,0-4.57-4.56A.46.46,0,0,0,270.76,114Z"/><circle class="cls-1" cx="183.22" cy="10.87" r="10.87" transform="translate(130.55 186.69) rotate(-76.72)"/><path class="cls-5" d="M180.82,10l.4-.44A1.8,1.8,0,0,0,181.09,7l-.67-.61a1.81,1.81,0,0,0-2.56.13l-.4.44a1.24,1.24,0,0,0-.14.18l0,0a2.24,2.24,0,0,0-.51,2,10.2,10.2,0,0,0,9.06,8.19,2.52,2.52,0,0,0,1.57-.32,2.17,2.17,0,0,0,.44-.36l.39-.44a1.81,1.81,0,0,0-.12-2.56l-.67-.61a1.82,1.82,0,0,0-2.57.13l-.39.44a1.81,1.81,0,0,0-.38.64l0,.1-.11,0a7.6,7.6,0,0,1-4-3.71l-.06-.11.12,0A1.7,1.7,0,0,0,180.82,10Z"/><path class="cls-5" d="M183,4.75a.42.42,0,0,0,.43.42,5.39,5.39,0,0,1,5.38,5.39.43.43,0,0,0,.85,0,6.25,6.25,0,0,0-6.23-6.24A.43.43,0,0,0,183,4.75Z"/><path class="cls-5" d="M183,6.82a.42.42,0,0,0,.43.42,3.39,3.39,0,0,1,3.38,3.38.43.43,0,1,0,.85,0A4.23,4.23,0,0,0,183.4,6.4.42.42,0,0,0,183,6.82Z"/><path class="cls-1" d="M282.55,134.59a26,26,0,0,1,14.25-6.21c2.63-.25,5.5.06,7.47,1.81,5.18,4.61,4.65,15.59,4.56,22-.22,15.41-4.13,30.61-10.27,44.7A151.91,151.91,0,0,1,287.89,217c-1.86,2.95-3.83,5.84-5.62,8.84-.75,1.26-5.77,9.06-4.82,10.31-4.37-5.76-6.81-12.8-8.05-19.93-1.83-10.54-3.81-21.4-3.27-32.29a128.07,128.07,0,0,1,5.67-33.08A36,36,0,0,1,282.55,134.59Z"/><g class="cls-7"><path class="cls-8" d="M277,241.69c-1.49-18.58.14-37.3,3.71-55.56,3.4-17.43,7.83-34.91,14.47-51.4a158.48,158.48,0,0,1,7.43-16"/><path class="cls-8" d="M317,143.77a112.09,112.09,0,0,0-26,12.93c-2,1.37-3.17,1.78-4.88,3.56"/><path class="cls-8" d="M281.71,180.12a76.6,76.6,0,0,1,29.12-11"/><path class="cls-8" d="M278.06,204.06a65.42,65.42,0,0,1,28.78-14.18"/><path class="cls-8" d="M286.65,159.65a81.47,81.47,0,0,0-7-28.55"/><path class="cls-8" d="M281.82,179.31a71.88,71.88,0,0,0-17.31-23.5"/><path class="cls-8" d="M277.51,204.74a27.1,27.1,0,0,0-2.91-7.85,47.82,47.82,0,0,0-5.83-7.83q-2.31-2.67-4.69-5.25"/></g><path class="cls-1" d="M260.48,169.29a17.1,17.1,0,0,0-10-2.34,6.43,6.43,0,0,0-4.63,2.06c-2.81,3.61-1.17,10.66-.35,14.81a77.11,77.11,0,0,0,12,27.77,101.76,101.76,0,0,0,9.31,11.79c1.56,1.69,3.18,3.33,4.7,5.07.63.72,4.82,5.19,4.35,6.11a30,30,0,0,0,2.85-13.88c-.06-7.05-.07-14.34-1.71-21.33a84.79,84.79,0,0,0-7.61-20.78A23.63,23.63,0,0,0,260.48,169.29Z"/><g class="cls-9"><path class="cls-8" d="M276.83,238.08a135.15,135.15,0,0,0-9-35.59,186.3,186.3,0,0,0-15.48-31.62,104.73,104.73,0,0,0-6.72-9.48"/><path class="cls-8" d="M239.2,179.34a73.5,73.5,0,0,1,18.37,5.3,15.23,15.23,0,0,1,3.59,1.72"/><path class="cls-8" d="M266.43,198.72a50.37,50.37,0,0,0-20.19-3.67"/><path class="cls-8" d="M271.64,213.81A43.11,43.11,0,0,0,251.29,208"/><path class="cls-8" d="M260.79,186a53.82,53.82,0,0,1,1.13-19.34"/><path class="cls-8" d="M266.26,198.21a47.23,47.23,0,0,1,8.44-17.3"/><path class="cls-8" d="M272.08,214.18a17.67,17.67,0,0,1,.95-5.44,32.23,32.23,0,0,1,2.85-5.77c.79-1.33,1.59-2.65,2.42-4"/></g><path class="cls-10" d="M291.38,229.91H260.8c0,17.27,5.37,34.54,5.37,34.54H286S291.38,247.25,291.38,229.91Z"/><rect class="cls-10" x="258.48" y="225.26" width="35.23" height="4.65"/><path class="cls-10" d="M37.41,254.28h-8a3.68,3.68,0,0,1-3.68-3.68V235.7A3.68,3.68,0,0,1,29.38,232h8a3.68,3.68,0,0,1,3.67,3.67v14.9A3.68,3.68,0,0,1,37.41,254.28Zm-8-19.1a.53.53,0,0,0-.53.52v14.9a.53.53,0,0,0,.53.53h8a.53.53,0,0,0,.52-.53V235.7a.53.53,0,0,0-.52-.52Z"/><rect class="cls-10" x="33.39" y="227.56" width="23.47" height="29.91" rx="3"/><rect class="cls-11" x="48.29" y="227.56" width="5.14" height="22.72" rx="2"/><path class="cls-12" d="M42.07,252.75a2.58,2.58,0,0,1-2.57-2.58V227.56H36a2.58,2.58,0,0,0-2.57,2.57v24.76A2.58,2.58,0,0,0,36,257.46H54.29a2.58,2.58,0,0,0,2.58-2.57v-2.14Z"/><path class="cls-13" d="M255.05,271.44H185.11c-5.37,0-9.73-3.45-9.73-7.71V211.64c0-19.55,20-35.4,44.7-35.4h0c24.69,0,44.7,15.85,44.7,35.4v52.09C264.78,268,260.42,271.44,255.05,271.44Z"/><path class="cls-14" d="M250,185.37c5.92,6,9.45,13.55,9.45,21.76v52.09c0,4.26-4.35,7.71-9.73,7.71H179.83a11.71,11.71,0,0,1-3.89-.65c1.33,3,4.93,5.16,9.17,5.16h69.94c5.37,0,9.73-3.45,9.73-7.71V211.64C264.78,201.22,259.09,191.85,250,185.37Z"/><polygon class="cls-15" points="220.66 187.59 204.68 187.59 202.33 164.04 218.31 164.04 220.66 187.59"/><path class="cls-16" d="M187.11,257.29h0a10.93,10.93,0,0,1-8.5-16.89l29-44.38a10.93,10.93,0,0,1,9.78-4.92h0a10.92,10.92,0,0,1,8.5,16.89l-29.05,44.37A10.91,10.91,0,0,1,187.11,257.29Z"/><path class="cls-17" d="M113.81,235.16h74.24a11,11,0,0,1,11,11.06h0a11,11,0,0,1-11,11H113.81a11.05,11.05,0,0,1-11-11h0A11.06,11.06,0,0,1,113.81,235.16Z"/><circle class="cls-18" cx="187.96" cy="149.27" r="10.53" transform="translate(-0.5 297.91) rotate(-76.72)"/><path class="cls-4" d="M246,228.5c.12,6.73.09,13.47,0,20.2l-.12,10.11c0,3.39.31,7.09-.18,10.42-4,.59-8.4.07-12.4.07H182.22c-.87-.29,0-7.86-.05-8.88-.7-13.59-2.61-27-1.92-40.64a63.85,63.85,0,0,1,2.8-17c2.79-8.31,8.22-15.08,16.61-18.08,8-2.85,16.83-2.72,25.09-1.57,6.22.87,11.3,4.87,15,9.8,5.45,7.34,5.49,17.28,5.93,26.06C245.8,222.15,245.89,225.33,246,228.5Z"/><path class="cls-19" d="M203.87,94.58c-10.35,0-18.74,7.73-18.74,17.26v30"/><path class="cls-20" d="M210.82,175.79a29,29,0,0,1-10.75-1.53c-15.9-5.61-17.44-24-17.08-37.72.12-4.3.1-8.61.36-12.91.3-5.07,1.85-10.37,7.32-12.38,1.43-.52,3-.59,4.41-1a17.92,17.92,0,0,1,5.36-1h16.22a17.76,17.76,0,0,1,14.19,7c3,4.1,3.26,9.24,3.23,14.06,0,4.3,0,8.61-.18,12.9-.42,8.11-1.74,16.78-6.8,23.57a24,24,0,0,1-6.37,5.92A19.73,19.73,0,0,1,210.82,175.79Z"/><path class="cls-13" d="M219.58,97a12.77,12.77,0,0,0-4.28-1.19,16.08,16.08,0,0,0-5.65.48c-.6.17-5.33,1.83-5.16,2.59a7,7,0,0,0-5.72-5A13.26,13.26,0,0,0,191,95.23c-.65.31-4.67,3.49-3.56,4.4a8.34,8.34,0,0,0-4.7-1.71c-3-.23-7.22.41-9,3.22a7.14,7.14,0,0,0-.87,4.39,16.41,16.41,0,0,0,3.24,8.13c-1.93-1.15-4.66.47-5.1,2.68s.91,4.46,2.76,5.73c2.39,1.64,5.42,2,8.32,2,12.62.15,25.42-4.15,37.66-1.07a5.66,5.66,0,0,1,3.69,3.23,47.4,47.4,0,0,1,4.21,10.62c1.17,4.57,2.88,9.92,8,11.17,1.18.29,2.46.61,3.37-.11s1.77-3,2.29-4.11a37.38,37.38,0,0,0,2-5.55,41.14,41.14,0,0,0-1.07-25.3c-2-5-5.58-10.9-10.9-12.73a10.29,10.29,0,0,0-4.23-.75c-.43.05-2.68,1.3-2.91,1.05A13,13,0,0,0,219.58,97Z"/><path class="cls-19" d="M234.26,139.33V111.85c0-9.53-8.39-17.25-18.74-17.25H203.88"/><path class="cls-2" d="M193.3,159.11a7.86,7.86,0,0,0,7.86,7.87h0a7.86,7.86,0,0,0,7.86-7.87"/><g class="cls-21"><path class="cls-22" d="M194.57,165.44c0,1.56,3,2.82,6.59,2.82s6.59-1.26,6.59-2.82-2.95-2.81-6.59-2.81S194.57,163.89,194.57,165.44Z"/></g><path class="cls-23" d="M216.56,143.09c0,2.25-1.24,4.08-2.76,4.08s-2.76-1.83-2.76-4.08,1.23-4.07,2.76-4.07S216.56,140.84,216.56,143.09Z"/><path class="cls-23" d="M192.73,143.09c0,2.25-1.23,4.08-2.76,4.08s-2.76-1.83-2.76-4.08S188.44,139,190,139,192.73,140.84,192.73,143.09Z"/><path class="cls-13" d="M212.21,133.29a7,7,0,0,1,6.09-.74,7,7,0,0,1,4.51,4.16c-1-.45-1.79-.89-2.63-1.27a25.94,25.94,0,0,0-2.5-1,23.37,23.37,0,0,0-2.59-.67C214.19,133.59,213.26,133.47,212.21,133.29Z"/><path class="cls-13" d="M194.65,133.29c-1,.18-2,.3-2.87.49a22.81,22.81,0,0,0-2.59.67,25,25,0,0,0-2.5,1c-.84.38-1.67.82-2.63,1.27a7.3,7.3,0,0,1,10.59-3.42Z"/><ellipse class="cls-15" cx="201.16" cy="150.51" rx="2.71" ry="2.49"/><path class="cls-19" d="M231.29,156.17c-3.55,11.29-15.07,15.34-23.11,13.87"/><path class="cls-18" d="M204.62,170a3.56,3.56,0,1,0,3.56-3.56A3.56,3.56,0,0,0,204.62,170Z"/><circle class="cls-18" cx="234.28" cy="149.27" r="10.96" transform="translate(49.41 356.62) rotate(-80.78)"/><path class="cls-24" d="M240.86,149.27a6.58,6.58,0,1,1-6.58-6.57A6.59,6.59,0,0,1,240.86,149.27Z"/><path class="cls-17" d="M232.48,257.64c14.92-6.77,14.6-25.56,14.12-39.45-.25-7.19-.22-15.12-3.23-21.78-2-4.34-5.74-7.63-10.78-6.66-7.89,1.52-9.31,12.64-10,18.68-.76,6.51-.4,13.1-1.24,19.6-.36,2.8-1.09,5.81-3.44,7.6-1.84,1.41-4.33,1.79-6.69,2.06a139.46,139.46,0,0,1-16.22.89c-7.72,0-15.69-.66-23,1.78a3.77,3.77,0,0,0-1.64.9,3.54,3.54,0,0,0-.63,2.47q0,3.59,0,7.17a6.79,6.79,0,0,0,.79,3.85,6.58,6.58,0,0,0,2.89,2.1c5.37,2.38,11.53,2.59,17.49,2.74l22.15.6c6.26.17,13.35.09,19.13-2.44Z"/><path class="cls-20" d="M166.64,234.31c5.34.24,9.54,3.24,13.48,6.58a9.08,9.08,0,0,1,3.35,5.19c.42,2.48-.47,5.19-3.15,5.42-3.39.31-6.71.07-9.7-1.67-2.32-1.36-4.24-3.76-7.07-4.05-2.26-.23-4.35,1-6.48,1.81a15.28,15.28,0,0,1-6.14.85,2.93,2.93,0,0,1-1.7-.53c-1.9-1.59,2.6-7,3.8-8.08a20.55,20.55,0,0,1,4.25-3A18.25,18.25,0,0,1,166.64,234.31Z"/><rect class="cls-24" y="257.27" width="310.95" height="14.17" rx="6.25"/><path class="cls-25" d="M101.34,248.17a12.92,12.92,0,0,1,25.83,0"/><rect class="cls-18" x="143.91" y="247.28" width="55.04" height="9.99" rx="4"/><path class="cls-18" d="M152.67,248.25l-12.88-65.57a3.7,3.7,0,0,0-3.63-3H50.55a3.67,3.67,0,0,0-3,1.52h0l-4,4.68,3.51-.77,12.68,64.55a3.69,3.69,0,0,0,3.62,3H149A3.69,3.69,0,0,0,152.67,248.25Z"/><path class="cls-1" d="M59.51,257.27h85.62a3.7,3.7,0,0,0,3.62-4.41L135.87,187.3a3.69,3.69,0,0,0-3.62-3H46.64a3.69,3.69,0,0,0-3.63,4.4l12.88,65.57A3.69,3.69,0,0,0,59.51,257.27Z"/><polygon class="cls-18" points="86.87 214.36 102.87 214.36 104.21 223.99 88.62 223.99 86.87 214.36"/><g class="cls-26"><path class="cls-5" d="M80.62,192.09H130c3.22,0,3.22-5,0-5H80.62c-3.22,0-3.22,5,0,5Z"/></g></g></g></svg>