<svg xmlns="http://www.w3.org/2000/svg" xmlns:xlink="http://www.w3.org/1999/xlink" viewBox="0 0 269.35 234.73"><defs><style>.cls-1,.cls-19{fill:#172f78;}.cls-1,.cls-11{opacity:0.4;}.cls-2{fill:#03a7d3;}.cls-3{fill:url(#Áåçûìÿííûé_ãðàäèåíò_515);}.cls-4{fill:url(#Áåçûìÿííûé_ãðàäèåíò_19);}.cls-5{fill:url(#Áåçûìÿííûé_ãðàäèåíò_515-2);}.cls-18,.cls-6{fill:#fff;}.cls-18,.cls-7,.cls-9{opacity:0.5;}.cls-8,.cls-9{fill:#380031;}.cls-10,.cls-11{fill:#06033e;}.cls-10{opacity:0.2;}.cls-12{fill:url(#Áåçûìÿííûé_ãðàäèåíò_515-3);}.cls-13{fill:url(#Áåçûìÿííûé_ãðàäèåíò_47);}.cls-14{fill:url(#Áåçûìÿííûé_ãðàäèåíò_89);}.cls-15{fill:url(#Áåçûìÿííûé_ãðàäèåíò_515-4);}.cls-16{fill:#8b1e64;}.cls-17{fill:#fb8488;}</style><linearGradient id="Áåçûìÿííûé_ãðàäèåíò_515" x1="-403.82" y1="81.16" x2="-253.56" y2="81.16" gradientTransform="translate(522.91)" gradientUnits="userSpaceOnUse"><stop offset="0" stop-color="#b6246e"/><stop offset="1" stop-color="#f9636b"/></linearGradient><linearGradient id="Áåçûìÿííûé_ãðàäèåíò_19" x1="-374.34" y1="155.21" x2="-289.96" y2="155.21" gradientTransform="translate(522.91)" gradientUnits="userSpaceOnUse"><stop offset="0" stop-color="#f9636b"/><stop offset="0.32" stop-color="#b7256e"/><stop offset="1" stop-color="#b6246e"/></linearGradient><linearGradient id="Áåçûìÿííûé_ãðàäèåíò_515-2" x1="-278.83" y1="145.96" x2="-439.61" y2="154.55" xlink:href="#Áåçûìÿííûé_ãðàäèåíò_515"/><linearGradient id="Áåçûìÿííûé_ãðàäèåíò_515-3" x1="65.52" y1="58.75" x2="31.64" y2="49.65" gradientTransform="matrix(1, 0, 0, 1, 0, 0)" xlink:href="#Áåçûìÿííûé_ãðàäèåíò_515"/><radialGradient id="Áåçûìÿííûé_ãðàäèåíò_47" cx="65.22" cy="60.4" r="25.24" gradientUnits="userSpaceOnUse"><stop offset="0" stop-color="#f9636b"/><stop offset="1" stop-color="#b6246e"/></radialGradient><linearGradient id="Áåçûìÿííûé_ãðàäèåíò_89" x1="40.47" y1="50.11" x2="76.41" y2="50.11" gradientUnits="userSpaceOnUse"><stop offset="0" stop-color="#a31c5a"/><stop offset="1" stop-color="#f9636b"/></linearGradient><linearGradient id="Áåçûìÿííûé_ãðàäèåíò_515-4" x1="69.9" y1="56.32" x2="35.77" y2="51.05" gradientTransform="matrix(1, 0, 0, 1, 0, 0)" xlink:href="#Áåçûìÿííûé_ãðàäèåíò_515"/></defs><title>Ativo 3</title><g id="Camada_2" data-name="Camada 2"><g id="Ñëîé_1" data-name="Ñëîé 1"><path class="cls-1" d="M42.59,32.62a6.08,6.08,0,1,1-6.08-6.08A6.08,6.08,0,0,1,42.59,32.62Z"/><path class="cls-1" d="M156.36,234.73a6.21,6.21,0,0,1-3-.69L36.09,166.34a2.22,2.22,0,0,1-1.28-1.89,3,3,0,0,1,1.76-2.39l75.25-43.45a7.71,7.71,0,0,1,6.92-.27L236,186a2.23,2.23,0,0,1,1.28,1.89,3,3,0,0,1-1.76,2.39l-75.25,43.45A8,8,0,0,1,156.36,234.73Zm-2.77-1.13a7.14,7.14,0,0,0,6.41-.27l75.25-43.45a2.53,2.53,0,0,0,1.51-2,1.75,1.75,0,0,0-1-1.46L118.49,118.77a7.16,7.16,0,0,0-6.42.28L36.82,162.49a2.54,2.54,0,0,0-1.51,2,1.76,1.76,0,0,0,1,1.46Z"/><path class="cls-2" d="M156.36,223.85a6.21,6.21,0,0,1-3-.69L36.09,155.46a2.21,2.21,0,0,1-1.28-1.89,3,3,0,0,1,1.76-2.39l75.25-43.45a7.71,7.71,0,0,1,6.92-.27L236,175.15a2.23,2.23,0,0,1,1.28,1.89,3,3,0,0,1-1.76,2.39l-75.25,43.45A8,8,0,0,1,156.36,223.85Zm-2.77-1.13a7.14,7.14,0,0,0,6.41-.27L235.25,179a2.53,2.53,0,0,0,1.51-2,1.75,1.75,0,0,0-1-1.46L118.49,107.89a7.16,7.16,0,0,0-6.42.28L36.82,151.61a2.54,2.54,0,0,0-1.51,2,1.76,1.76,0,0,0,1,1.46Z"/><path class="cls-3" d="M267,67.88,150.22.45a3,3,0,0,0-2.38-.34h0l-2.17.76.76.18a3.84,3.84,0,0,0-.71,1.33L119.3,88.13a5.17,5.17,0,0,0,2.14,5.77l116.79,67.43a3.31,3.31,0,0,0,.86.35l-.29.63,2.06-.72h0a3.31,3.31,0,0,0,1.88-2.18l26.41-85.75A5.18,5.18,0,0,0,267,67.88Z"/><path class="cls-4" d="M234.05,164.53l0,.05L118.73,98a7.33,7.33,0,0,0-6.62.28l-74.53,43-2.48-.95.7,3.48h0a2.07,2.07,0,0,0,1.12,1.4l116.42,67.21a7.36,7.36,0,0,0,6.62-.27L234.68,169a3,3,0,0,0,1.58-1.85h0l.71-3.39Z"/><path class="cls-5" d="M153.46,209.37,36.21,141.67c-1.7-1-1.49-2.71.48-3.85l75.25-43.44a7.4,7.4,0,0,1,6.67-.28l117.25,67.69c1.71,1,1.49,2.71-.48,3.85l-75.25,43.45A7.44,7.44,0,0,1,153.46,209.37Z"/><path class="cls-6" d="M36.21,139.7l117.25,67.7a7.44,7.44,0,0,0,6.67-.28l75.25-43.45a3.61,3.61,0,0,0,1.29-1.16c.71,1,.27,2.23-1.29,3.13l-75.25,43.45a7.44,7.44,0,0,1-6.67.28L36.21,141.67a1.77,1.77,0,0,1-.8-2.68A2.44,2.44,0,0,0,36.21,139.7Z"/><path class="cls-2" d="M236.24,162,119.45,94.6a5.17,5.17,0,0,1-2.14-5.77L143.72,3.08a3,3,0,0,1,4.51-1.93L265,68.58a5.18,5.18,0,0,1,2.14,5.77L240.75,160.1A3,3,0,0,1,236.24,162Z"/><path class="cls-2" d="M237.84,162.73a3.39,3.39,0,0,1-1.73-.49L119.33,94.82a5.46,5.46,0,0,1-2.26-6.06L143.48,3a3.52,3.52,0,0,1,2-2.35,3.23,3.23,0,0,1,2.84.27L265.14,68.36a5.45,5.45,0,0,1,2.26,6.06L241,160.17a3.57,3.57,0,0,1-2,2.35A3,3,0,0,1,237.84,162.73Zm-1.48-.92a2.77,2.77,0,0,0,2.41.25,3.11,3.11,0,0,0,1.74-2l26.41-85.75a4.92,4.92,0,0,0-2-5.48L148.11,1.37a2.74,2.74,0,0,0-2.41-.25,3,3,0,0,0-1.74,2L117.55,88.9a4.91,4.91,0,0,0,2,5.48Z"/><g class="cls-7"><path class="cls-8" d="M94.7,129.26,90.82,127c-.31-.18-.27-.49.09-.7l4.57-2.64a1.35,1.35,0,0,1,1.22-.05l3.87,2.24c.32.18.28.49-.08.7l-4.58,2.64A1.33,1.33,0,0,1,94.7,129.26Z"/><path class="cls-8" d="M100.68,132.72l-3.87-2.24c-.31-.18-.28-.49.08-.7l4.58-2.64a1.35,1.35,0,0,1,1.22,0l3.87,2.23c.31.18.27.5-.08.71l-4.58,2.64A1.35,1.35,0,0,1,100.68,132.72Z"/><path class="cls-8" d="M106.67,136.18l-3.88-2.24c-.31-.18-.27-.5.09-.7l4.58-2.65a1.36,1.36,0,0,1,1.21-.05l3.88,2.24c.31.18.27.49-.09.7l-4.57,2.64A1.36,1.36,0,0,1,106.67,136.18Z"/><path class="cls-8" d="M115,133.32l-3.87-2.24c-.32-.18-.28-.49.08-.7l3.85-2.22a1.33,1.33,0,0,1,1.21,0l3.88,2.24c.31.18.27.49-.09.7l-3.84,2.22A1.35,1.35,0,0,1,115,133.32Z"/><path class="cls-8" d="M120.94,136.78l-3.88-2.24c-.31-.18-.27-.49.09-.7l3.84-2.22a1.35,1.35,0,0,1,1.22-.05l3.88,2.24c.31.18.27.49-.09.7l-3.84,2.22A1.38,1.38,0,0,1,120.94,136.78Z"/><path class="cls-8" d="M126.93,140.23,123.05,138c-.31-.18-.27-.5.09-.71l3.84-2.21a1.35,1.35,0,0,1,1.22-.05l3.87,2.23c.32.18.28.5-.08.71l-3.85,2.21A1.33,1.33,0,0,1,126.93,140.23Z"/><path class="cls-8" d="M132.92,143.69,129,141.45c-.31-.18-.27-.49.09-.7l3.84-2.22a1.36,1.36,0,0,1,1.21-.05l3.88,2.24c.31.18.27.5-.09.7l-3.84,2.22A1.33,1.33,0,0,1,132.92,143.69Z"/><path class="cls-8" d="M138.91,147.15,135,144.91c-.31-.18-.27-.49.09-.7L139,142a1.33,1.33,0,0,1,1.21-.05l3.88,2.24c.31.18.27.49-.09.7l-3.84,2.22A1.33,1.33,0,0,1,138.91,147.15Z"/><path class="cls-8" d="M144.89,150.61,141,148.37c-.31-.18-.28-.5.08-.7l3.85-2.22a1.33,1.33,0,0,1,1.21,0l3.88,2.24c.31.18.27.49-.09.7l-3.84,2.22A1.38,1.38,0,0,1,144.89,150.61Z"/><path class="cls-8" d="M150.88,154.06,147,151.82c-.31-.17-.27-.49.09-.7l3.84-2.21a1.35,1.35,0,0,1,1.22,0l3.88,2.23c.31.18.27.5-.09.7L152.1,154A1.35,1.35,0,0,1,150.88,154.06Z"/><path class="cls-8" d="M156.87,157.52,153,155.28c-.31-.18-.27-.49.09-.7l3.84-2.22a1.38,1.38,0,0,1,1.22-.05l3.87,2.24c.32.18.28.49-.08.7l-3.85,2.22A1.33,1.33,0,0,1,156.87,157.52Z"/><path class="cls-8" d="M162.86,161,159,158.74c-.31-.18-.27-.49.09-.7l3.84-2.22a1.33,1.33,0,0,1,1.21,0L168,158c.31.18.27.49-.08.7l-3.85,2.22A1.33,1.33,0,0,1,162.86,161Z"/><path class="cls-8" d="M168.85,164.44,165,162.2c-.31-.18-.27-.5.09-.7l3.84-2.22a1.33,1.33,0,0,1,1.21-.05l3.88,2.24c.31.18.27.49-.09.7l-3.84,2.21A1.37,1.37,0,0,1,168.85,164.44Z"/><path class="cls-8" d="M123.78,131.68l-3.88-2.24c-.31-.17-.27-.49.09-.7l3.84-2.21a1.37,1.37,0,0,1,1.21-.06l3.88,2.24c.31.18.27.5-.09.7L125,131.63A1.33,1.33,0,0,1,123.78,131.68Z"/><path class="cls-8" d="M117.7,128.17l-3.88-2.23c-.31-.18-.27-.5.09-.71l3.84-2.21a1.35,1.35,0,0,1,1.22,0l3.87,2.23c.31.18.28.5-.08.71l-3.85,2.21A1.33,1.33,0,0,1,117.7,128.17Z"/><path class="cls-8" d="M111.61,124.66l-8.35-4.82c-.31-.18-.27-.5.09-.7l3.84-2.22a1.33,1.33,0,0,1,1.21,0l8.36,4.82c.31.18.27.49-.09.7l-3.84,2.22A1.35,1.35,0,0,1,111.61,124.66Z"/><path class="cls-8" d="M115.87,120.39l-6.78-3.92c-.31-.18-.27-.49.09-.7l3.84-2.22a1.36,1.36,0,0,1,1.21,0l6.78,3.92c.31.18.27.49-.09.7l-3.84,2.22A1.36,1.36,0,0,1,115.87,120.39Z"/><path class="cls-8" d="M129.76,135.14l-3.87-2.24c-.31-.18-.27-.49.08-.7l3.85-2.22a1.33,1.33,0,0,1,1.21,0l3.88,2.24c.31.18.27.49-.09.7L131,135.09A1.35,1.35,0,0,1,129.76,135.14Z"/><path class="cls-8" d="M135.75,138.6l-3.87-2.24c-.32-.18-.28-.49.08-.7l3.84-2.22a1.35,1.35,0,0,1,1.22-.05l3.88,2.24c.31.18.27.49-.09.7L137,138.55A1.35,1.35,0,0,1,135.75,138.6Z"/><path class="cls-8" d="M141.74,142.06l-3.88-2.24c-.31-.18-.27-.5.09-.7l3.84-2.22a1.35,1.35,0,0,1,1.22-.05l3.87,2.24c.32.18.28.49-.08.7L143,142A1.39,1.39,0,0,1,141.74,142.06Z"/><path class="cls-8" d="M147.73,145.51l-3.88-2.24c-.31-.18-.27-.49.09-.7l3.84-2.22a1.38,1.38,0,0,1,1.22,0l3.87,2.24c.31.18.28.5-.08.7l-3.85,2.22A1.33,1.33,0,0,1,147.73,145.51Z"/><path class="cls-8" d="M153.72,149l-3.88-2.24c-.31-.18-.27-.49.09-.7l3.84-2.22a1.33,1.33,0,0,1,1.21-.05l3.88,2.24c.31.18.27.49-.09.7l-3.84,2.22A1.33,1.33,0,0,1,153.72,149Z"/><path class="cls-8" d="M159.71,152.43l-3.88-2.24c-.31-.18-.27-.5.08-.7l3.85-2.22a1.33,1.33,0,0,1,1.21-.05l3.88,2.24c.31.18.27.49-.09.7l-3.84,2.22A1.36,1.36,0,0,1,159.71,152.43Z"/><path class="cls-8" d="M165.69,155.88l-3.87-2.23c-.32-.18-.28-.5.08-.71l3.85-2.21a1.33,1.33,0,0,1,1.21,0l3.88,2.23c.31.18.27.5-.09.71l-3.84,2.21A1.35,1.35,0,0,1,165.69,155.88Z"/><path class="cls-8" d="M171.68,159.34l-3.88-2.24c-.31-.18-.27-.49.09-.7l3.84-2.22a1.38,1.38,0,0,1,1.22-.05l3.88,2.24c.31.18.27.5-.09.7l-3.84,2.22A1.35,1.35,0,0,1,171.68,159.34Z"/><path class="cls-8" d="M177.67,162.8l-3.88-2.24c-.31-.18-.27-.49.09-.7l3.84-2.22a1.35,1.35,0,0,1,1.22,0l3.87,2.24c.31.18.28.49-.08.7l-3.85,2.22A1.33,1.33,0,0,1,177.67,162.8Z"/><path class="cls-8" d="M188.31,168.94l-8.46-4.88c-.31-.18-.27-.49.09-.7l3.84-2.22a1.35,1.35,0,0,1,1.22,0l8.46,4.88c.31.18.27.5-.09.71l-3.84,2.21A1.35,1.35,0,0,1,188.31,168.94Z"/><path class="cls-8" d="M200,162.21l-7.14-4.12c-.31-.18-.27-.49.09-.7l3.84-2.22a1.35,1.35,0,0,1,1.22,0l7.14,4.12c.31.18.27.5-.09.71l-3.84,2.21A1.35,1.35,0,0,1,200,162.21Z"/><path class="cls-8" d="M140.25,134.46l-3.88-2.23c-.31-.18-.27-.5.09-.71l3.84-2.21a1.35,1.35,0,0,1,1.22-.05l3.88,2.23c.31.18.27.5-.09.71l-3.84,2.21A1.35,1.35,0,0,1,140.25,134.46Z"/><path class="cls-8" d="M134.11,130.92l-3.87-2.24c-.31-.18-.28-.49.08-.7l3.85-2.22a1.36,1.36,0,0,1,1.21-.05l3.88,2.24c.31.18.27.49-.09.7l-3.84,2.22A1.35,1.35,0,0,1,134.11,130.92Z"/><path class="cls-8" d="M128,127.38l-3.88-2.24c-.31-.18-.27-.49.09-.7l3.84-2.22a1.33,1.33,0,0,1,1.21,0l3.88,2.24c.31.18.27.49-.09.7l-3.84,2.22A1.33,1.33,0,0,1,128,127.38Z"/><path class="cls-8" d="M121.84,123.83,118,121.6c-.31-.18-.27-.5.09-.71l3.84-2.21a1.35,1.35,0,0,1,1.22-.05l3.87,2.23c.32.18.28.5-.08.71l-3.85,2.21A1.33,1.33,0,0,1,121.84,123.83Z"/><path class="cls-8" d="M146.24,137.92l-3.88-2.24c-.31-.18-.27-.49.09-.7l3.84-2.22a1.38,1.38,0,0,1,1.22,0l3.87,2.24c.31.18.28.5-.08.7l-3.85,2.22A1.33,1.33,0,0,1,146.24,137.92Z"/><path class="cls-8" d="M152.23,141.38l-3.88-2.24c-.31-.18-.27-.49.09-.7l3.84-2.22a1.33,1.33,0,0,1,1.21-.05l3.88,2.24c.31.18.27.49-.09.7l-3.84,2.22A1.33,1.33,0,0,1,152.23,141.38Z"/><path class="cls-8" d="M158.22,144.84l-3.88-2.24c-.31-.18-.27-.5.09-.7l3.84-2.22a1.33,1.33,0,0,1,1.21-.05l3.88,2.24c.31.18.27.49-.09.7l-3.84,2.22A1.36,1.36,0,0,1,158.22,144.84Z"/><path class="cls-8" d="M164.2,148.29l-3.87-2.24c-.32-.18-.28-.49.08-.7l3.85-2.22a1.36,1.36,0,0,1,1.21,0l3.88,2.24c.31.18.27.5-.09.7l-3.84,2.22A1.35,1.35,0,0,1,164.2,148.29Z"/><path class="cls-8" d="M170.19,151.75l-3.88-2.24c-.31-.18-.27-.49.09-.7l3.84-2.22a1.35,1.35,0,0,1,1.22-.05l3.88,2.24c.31.18.27.49-.09.7l-3.84,2.22A1.35,1.35,0,0,1,170.19,151.75Z"/><path class="cls-8" d="M176.18,155.21,172.3,153c-.31-.18-.27-.49.09-.7l3.84-2.22a1.35,1.35,0,0,1,1.22-.05l3.87,2.24c.31.18.28.49-.08.7l-3.85,2.22A1.36,1.36,0,0,1,176.18,155.21Z"/><path class="cls-8" d="M182.17,158.66l-3.88-2.23c-.31-.18-.27-.5.09-.71l3.84-2.21a1.33,1.33,0,0,1,1.21,0l3.88,2.23c.31.18.27.5-.09.71l-3.84,2.21A1.33,1.33,0,0,1,182.17,158.66Z"/><path class="cls-8" d="M188.16,162.12l-3.88-2.24c-.31-.18-.27-.49.09-.7l3.84-2.22a1.36,1.36,0,0,1,1.21-.05l3.88,2.24c.31.18.27.5-.09.7l-3.84,2.22A1.33,1.33,0,0,1,188.16,162.12Z"/><path class="cls-8" d="M194.14,165.58l-3.87-2.24c-.31-.18-.28-.49.08-.7l3.85-2.22a1.33,1.33,0,0,1,1.21,0l3.88,2.24c.31.18.27.49-.09.7l-3.84,2.22A1.35,1.35,0,0,1,194.14,165.58Z"/><path class="cls-8" d="M137.1,125.91l-3.88-2.24c-.31-.18-.27-.49.09-.7l3.84-2.22a1.36,1.36,0,0,1,1.21,0l3.88,2.24c.31.18.27.5-.09.7l-3.84,2.22A1.33,1.33,0,0,1,137.1,125.91Z"/><path class="cls-8" d="M131.14,122.47l-3.88-2.24c-.31-.18-.27-.49.09-.7l3.84-2.22a1.38,1.38,0,0,1,1.22,0l3.87,2.24c.32.18.28.5-.08.7l-3.85,2.22A1.33,1.33,0,0,1,131.14,122.47Z"/><path class="cls-8" d="M125.18,119l-3.88-2.24c-.31-.18-.27-.49.09-.7l3.84-2.22a1.38,1.38,0,0,1,1.22-.05l3.88,2.24c.31.18.27.5-.09.7L126.4,119A1.35,1.35,0,0,1,125.18,119Z"/><path class="cls-8" d="M119.22,115.59l-3.87-2.24c-.32-.18-.28-.49.08-.7l3.85-2.22a1.36,1.36,0,0,1,1.21-.05l3.88,2.24c.31.18.27.5-.09.7l-3.84,2.22A1.35,1.35,0,0,1,119.22,115.59Z"/><path class="cls-8" d="M125.35,112.06l-3.88-2.24c-.31-.18-.27-.5.09-.7l1.27-.74a1.33,1.33,0,0,1,1.21,0l3.88,2.24c.31.18.27.49-.08.7l-1.28.74A1.36,1.36,0,0,1,125.35,112.06Z"/><path class="cls-8" d="M133.13,116.54l-3.88-2.23c-.31-.18-.27-.5.09-.71l1.27-.73a1.33,1.33,0,0,1,1.21-.05l3.88,2.24c.31.18.27.49-.09.7l-1.27.73A1.33,1.33,0,0,1,133.13,116.54Z"/><path class="cls-8" d="M139.06,120l-3.88-2.24c-.31-.18-.27-.49.09-.7l1.27-.73a1.33,1.33,0,0,1,1.21,0l3.88,2.24c.31.18.27.49-.09.7l-1.27.73A1.33,1.33,0,0,1,139.06,120Z"/><path class="cls-8" d="M145,123.4l-3.87-2.24c-.32-.18-.28-.5.08-.7l1.27-.74a1.38,1.38,0,0,1,1.22,0l3.87,2.24c.32.18.28.5-.08.7l-1.27.74A1.38,1.38,0,0,1,145,123.4Z"/><path class="cls-8" d="M150.93,126.82l-3.88-2.24c-.31-.18-.27-.49.09-.7l1.27-.73a1.33,1.33,0,0,1,1.21-.05l3.88,2.24c.31.18.27.49-.09.7l-1.27.73A1.33,1.33,0,0,1,150.93,126.82Z"/><path class="cls-8" d="M184.05,146l-3.88-2.24c-.31-.18-.27-.5.09-.7l1.27-.74a1.38,1.38,0,0,1,1.22-.05l3.87,2.24c.32.18.28.5-.08.7l-1.27.74A1.38,1.38,0,0,1,184.05,146Z"/><path class="cls-8" d="M190,149.37l-3.88-2.24c-.31-.18-.27-.49.08-.7l1.27-.73a1.35,1.35,0,0,1,1.22,0l3.88,2.24c.31.18.27.49-.09.7l-1.27.73A1.33,1.33,0,0,1,190,149.37Z"/><path class="cls-8" d="M195.92,152.8,192,150.56c-.31-.18-.27-.49.09-.7l1.27-.73a1.33,1.33,0,0,1,1.21-.06l3.88,2.24c.31.18.27.5-.09.7l-1.27.74A1.33,1.33,0,0,1,195.92,152.8Z"/><path class="cls-8" d="M201.85,156.22,198,154c-.31-.18-.27-.5.09-.71l1.27-.73a1.35,1.35,0,0,1,1.22-.05l3.87,2.24c.32.18.28.49-.08.7l-1.27.73A1.35,1.35,0,0,1,201.85,156.22Z"/><path class="cls-8" d="M143.09,129.37l-3.88-2.24c-.31-.18-.27-.49.09-.7l3.84-2.22a1.33,1.33,0,0,1,1.21,0l3.88,2.24c.31.18.27.49-.09.7l-3.84,2.22A1.33,1.33,0,0,1,143.09,129.37Z"/><path class="cls-8" d="M149.07,132.83l-3.87-2.24c-.31-.18-.28-.49.08-.7l3.85-2.22a1.33,1.33,0,0,1,1.21,0l3.88,2.24c.31.18.27.49-.09.7l-3.84,2.22A1.38,1.38,0,0,1,149.07,132.83Z"/><path class="cls-8" d="M155.06,136.28l-3.88-2.23c-.31-.18-.27-.5.09-.71l3.84-2.21a1.35,1.35,0,0,1,1.22,0l3.88,2.23c.31.18.27.5-.09.71l-3.84,2.21A1.35,1.35,0,0,1,155.06,136.28Z"/><path class="cls-8" d="M161.05,139.74l-3.88-2.24c-.31-.18-.27-.49.09-.7l3.84-2.22a1.38,1.38,0,0,1,1.22-.05l3.87,2.24c.32.18.28.5-.08.7l-3.84,2.22A1.35,1.35,0,0,1,161.05,139.74Z"/><path class="cls-8" d="M167,143.2,163.16,141c-.31-.18-.27-.49.09-.7l3.84-2.22a1.33,1.33,0,0,1,1.21,0l3.88,2.24c.31.18.27.49-.08.7l-3.85,2.22A1.33,1.33,0,0,1,167,143.2Z"/><path class="cls-8" d="M173,146.66l-3.88-2.24c-.31-.18-.27-.5.09-.7l3.84-2.22a1.33,1.33,0,0,1,1.21-.05l3.88,2.24c.31.18.27.49-.09.7l-3.84,2.22A1.36,1.36,0,0,1,173,146.66Z"/><path class="cls-8" d="M179,150.11l-3.87-2.24c-.31-.17-.28-.49.08-.7l3.85-2.21a1.33,1.33,0,0,1,1.21-.05l3.88,2.23c.31.18.27.5-.09.7l-3.84,2.22A1.35,1.35,0,0,1,179,150.11Z"/><path class="cls-8" d="M185,153.57l-3.87-2.24c-.32-.18-.28-.49.08-.7l3.84-2.22a1.38,1.38,0,0,1,1.22,0l3.88,2.24c.31.18.27.49-.09.7l-3.84,2.22A1.35,1.35,0,0,1,185,153.57Z"/><path class="cls-8" d="M191,157l-3.88-2.24c-.31-.18-.27-.49.09-.7l3.84-2.22a1.35,1.35,0,0,1,1.22-.05l3.87,2.24c.32.18.28.49-.08.7L192.21,157A1.35,1.35,0,0,1,191,157Z"/><path class="cls-8" d="M108.85,129.8l-11.42-6.6c-.31-.18-.27-.49.09-.7l3.84-2.22a1.38,1.38,0,0,1,1.22,0l11.42,6.6c.31.18.27.49-.09.7l-3.84,2.22A1.38,1.38,0,0,1,108.85,129.8Z"/><path class="cls-8" d="M182.42,172.27,171,165.68c-.31-.18-.28-.5.08-.7l3.85-2.22a1.33,1.33,0,0,1,1.21,0l11.42,6.59c.31.18.27.49-.09.7l-3.84,2.22A1.33,1.33,0,0,1,182.42,172.27Z"/><path class="cls-8" d="M158.47,166.08l-3.88-2.24c-.31-.18-.27-.49.09-.7l4.58-2.64a1.33,1.33,0,0,1,1.21-.05l3.88,2.24c.31.18.27.49-.09.7L159.68,166A1.33,1.33,0,0,1,158.47,166.08Z"/><path class="cls-8" d="M115,141l-6.2-3.58c-.31-.18-.27-.49.09-.7l4.58-2.64a1.33,1.33,0,0,1,1.21-.05l6.2,3.58c.31.18.27.49-.08.7l-4.58,2.64A1.35,1.35,0,0,1,115,141Z"/><path class="cls-8" d="M152.7,162.75l-6.2-3.58c-.31-.18-.27-.49.09-.7l4.57-2.64a1.35,1.35,0,0,1,1.22-.05l6.2,3.58c.31.18.27.49-.09.7l-4.58,2.64A1.33,1.33,0,0,1,152.7,162.75Z"/><path class="cls-8" d="M123.62,146l-6.2-3.58c-.31-.18-.27-.49.09-.7l4.58-2.64a1.33,1.33,0,0,1,1.21,0l6.2,3.58c.31.18.27.49-.09.7l-4.57,2.64A1.35,1.35,0,0,1,123.62,146Z"/><path class="cls-8" d="M123.34,139l27,15.57c.34.19.34.5,0,.7L145.64,158a1.3,1.3,0,0,1-1.21,0l-27-15.56Z"/><path class="cls-8" d="M175.2,172.35l4.32,2.49c.26.15.23.41-.07.58l-1.87,1.08a1.11,1.11,0,0,1-1,0l-4.31-2.49c-.26-.15-.23-.41.07-.58l1.87-1.08A1.09,1.09,0,0,1,175.2,172.35Z"/><path class="cls-8" d="M169.17,168.86l4.32,2.5c.25.14.22.4-.08.57L171.54,173a1.09,1.09,0,0,1-1,0l-4.32-2.49c-.26-.15-.23-.4.07-.57l1.87-1.09A1.14,1.14,0,0,1,169.17,168.86Z"/><path class="cls-8" d="M163.18,165.41l4.32,2.49c.25.15.22.4-.07.57l-1.88,1.09a1.12,1.12,0,0,1-1,0l-4.32-2.5c-.26-.14-.22-.4.07-.57l1.87-1.08A1.11,1.11,0,0,1,163.18,165.41Z"/><path class="cls-8" d="M172.47,167l4.32,2.5c.26.14.23.4-.07.57l-1.87,1.08a1.11,1.11,0,0,1-1,0l-4.32-2.49c-.25-.15-.22-.4.08-.57l1.87-1.08A1.09,1.09,0,0,1,172.47,167Z"/></g><path class="cls-9" d="M123.92,178.78a5.51,5.51,0,0,1-2.75-.65L91.08,160.76a2.09,2.09,0,0,1-1.2-1.79,2.77,2.77,0,0,1,1.62-2.24L107,147.78a6.85,6.85,0,0,1,6.26-.24l30.09,17.37a2.12,2.12,0,0,1,1.21,1.8,2.81,2.81,0,0,1-1.63,2.24l-15.49,8.94A7.15,7.15,0,0,1,123.92,178.78Zm-2.38-1.28a6.13,6.13,0,0,0,5.53-.24l15.49-8.94c.8-.47,1.26-1,1.26-1.61a1.47,1.47,0,0,0-.84-1.17l-30.09-17.37a6.19,6.19,0,0,0-5.53.24l-15.49,9A2.1,2.1,0,0,0,90.61,159a1.43,1.43,0,0,0,.83,1.16Z"/><path class="cls-6" d="M160.36,33.87l-3.41-2a.88.88,0,0,1-.38-1h0a.51.51,0,0,1,.77-.32l3.41,2a.88.88,0,0,1,.38,1h0A.5.5,0,0,1,160.36,33.87Z"/><path class="cls-6" d="M168.5,38.57l-5-2.91a.91.91,0,0,1-.38-1h0a.51.51,0,0,1,.77-.32l5,2.91a.88.88,0,0,1,.38,1h0A.51.51,0,0,1,168.5,38.57Z"/><path class="cls-6" d="M153.47,49.08l-3.41-2a.88.88,0,0,1-.38-1h0a.51.51,0,0,1,.77-.32l3.41,2a.88.88,0,0,1,.38,1h0A.5.5,0,0,1,153.47,49.08Z"/><path class="cls-6" d="M160.73,53.27l-5-2.91a.88.88,0,0,1-.38-1h0a.51.51,0,0,1,.77-.32l5,2.91a.91.91,0,0,1,.38,1h0A.51.51,0,0,1,160.73,53.27Z"/><path class="cls-6" d="M150.13,31.16,148,29.93a.88.88,0,0,1-.38-1h0a.5.5,0,0,1,.76-.32l2.14,1.23a.88.88,0,0,1,.38,1h0A.5.5,0,0,1,150.13,31.16Z"/><path class="cls-6" d="M156.55,38.07,150,34.3a.88.88,0,0,1-.38-1h0a.51.51,0,0,1,.77-.32l6.52,3.77a.88.88,0,0,1,.38,1h0A.51.51,0,0,1,156.55,38.07Z"/><path class="cls-6" d="M150.54,41l-2.14-1.23a.91.91,0,0,1-.38-1h0a.51.51,0,0,1,.77-.32l2.14,1.23a.91.91,0,0,1,.38,1h0A.51.51,0,0,1,150.54,41Z"/><path class="cls-6" d="M161.52,60.12l-5.71-3.29a.89.89,0,0,1-.37-1h0a.5.5,0,0,1,.76-.32l5.7,3.29a.88.88,0,0,1,.38,1h0A.5.5,0,0,1,161.52,60.12Z"/><path class="cls-6" d="M148.15,46l-1.37-.79a.9.9,0,0,1-.38-1h0a.5.5,0,0,1,.76-.32l1.37.79a.9.9,0,0,1,.38,1h0A.5.5,0,0,1,148.15,46Z"/><path class="cls-6" d="M146.85,51.65l-1.7-1a.88.88,0,0,1-.38-1h0a.51.51,0,0,1,.77-.32l1.7,1a.91.91,0,0,1,.38,1h0A.5.5,0,0,1,146.85,51.65Z"/><path class="cls-6" d="M153.47,55.48,149,52.89a.93.93,0,0,1-.38-1h0a.51.51,0,0,1,.77-.32l4.49,2.59a.93.93,0,0,1,.38,1h0A.51.51,0,0,1,153.47,55.48Z"/><path class="cls-6" d="M147.56,55.26l-3.23-1.86a.91.91,0,0,1-.38-1h0a.51.51,0,0,1,.77-.32L148,54a.91.91,0,0,1,.38,1h0A.51.51,0,0,1,147.56,55.26Z"/><path class="cls-6" d="M166.41,63l-2.08-1.2a.91.91,0,0,1-.38-1h0a.51.51,0,0,1,.77-.32l2.07,1.2a.88.88,0,0,1,.38,1h0A.5.5,0,0,1,166.41,63Z"/><path class="cls-6" d="M158.48,45.58l-5.7-3.3a.88.88,0,0,1-.38-1h0a.5.5,0,0,1,.76-.32l5.71,3.29a.91.91,0,0,1,.37,1h0A.5.5,0,0,1,158.48,45.58Z"/><path class="cls-6" d="M159.15,42.77,149.22,37a.88.88,0,0,1-.38-1h0a.51.51,0,0,1,.77-.32l9.93,5.74a.88.88,0,0,1,.38,1h0A.51.51,0,0,1,159.15,42.77Z"/><path class="cls-6" d="M153.29,45.78l-5.7-3.29a.89.89,0,0,1-.38-1h0a.5.5,0,0,1,.77-.32l5.7,3.29a.88.88,0,0,1,.38,1h0A.51.51,0,0,1,153.29,45.78Z"/><path class="cls-6" d="M162.8,48.07l-2.07-1.19a.9.9,0,0,1-.38-1h0a.51.51,0,0,1,.77-.32l2.07,1.2a.88.88,0,0,1,.38,1h0A.51.51,0,0,1,162.8,48.07Z"/><path class="cls-6" d="M178.9,44.55l-7.3-4.19a.91.91,0,0,1-.38-1h0a.51.51,0,0,1,.77-.32l7.3,4.19a.88.88,0,0,1,.38,1h0A.5.5,0,0,1,178.9,44.55Z"/><path class="cls-6" d="M152.81,51.9l-6.85-4a.91.91,0,0,1-.38-1h0a.51.51,0,0,1,.77-.32l6.85,4a.88.88,0,0,1,.38,1h0A.51.51,0,0,1,152.81,51.9Z"/><path class="cls-6" d="M153.85,30.11l-5-2.91a.88.88,0,0,1-.38-1h0a.51.51,0,0,1,.77-.32l5,2.91a.91.91,0,0,1,.38,1h0A.51.51,0,0,1,153.85,30.11Z"/><path class="cls-6" d="M146.51,57.85l-5.84-3.37a.88.88,0,0,1-.38-1h0a.51.51,0,0,1,.77-.32l5.83,3.37a.88.88,0,0,1,.38,1h0A.5.5,0,0,1,146.51,57.85Z"/><path class="cls-6" d="M151.43,64.1l-3.42-2a.93.93,0,0,1-.38-1h0a.51.51,0,0,1,.77-.32l3.42,2a.91.91,0,0,1,.38,1h0A.51.51,0,0,1,151.43,64.1Z"/><path class="cls-6" d="M159.57,68.8l-5-2.91a.88.88,0,0,1-.38-1h0a.5.5,0,0,1,.77-.32l5,2.9a.93.93,0,0,1,.38,1h0A.51.51,0,0,1,159.57,68.8Z"/><path class="cls-6" d="M144.54,79.31l-3.42-2a.93.93,0,0,1-.38-1h0a.51.51,0,0,1,.77-.32l3.42,2a.88.88,0,0,1,.38,1h0A.51.51,0,0,1,144.54,79.31Z"/><path class="cls-6" d="M151.79,83.5l-5-2.91a.88.88,0,0,1-.38-1h0a.5.5,0,0,1,.76-.32l5,2.9a.9.9,0,0,1,.38,1h0A.51.51,0,0,1,151.79,83.5Z"/><path class="cls-6" d="M141.2,61.39l-2.14-1.23a.9.9,0,0,1-.38-1h0a.51.51,0,0,1,.77-.32l2.13,1.24a.88.88,0,0,1,.38,1h0A.5.5,0,0,1,141.2,61.39Z"/><path class="cls-6" d="M147.62,68.29l-6.52-3.76a.88.88,0,0,1-.38-1h0a.5.5,0,0,1,.77-.32L148,67a.91.91,0,0,1,.38,1h0A.51.51,0,0,1,147.62,68.29Z"/><path class="cls-6" d="M141.6,71.22,139.47,70a.88.88,0,0,1-.38-1h0a.51.51,0,0,1,.77-.32L142,69.91a.9.9,0,0,1,.38,1h0A.51.51,0,0,1,141.6,71.22Z"/><path class="cls-6" d="M152.58,90.35l-5.7-3.29a.9.9,0,0,1-.38-1h0a.51.51,0,0,1,.77-.32L153,89a.9.9,0,0,1,.38,1h0A.51.51,0,0,1,152.58,90.35Z"/><path class="cls-6" d="M139.21,76.23l-1.37-.79a.88.88,0,0,1-.38-1h0a.51.51,0,0,1,.77-.32l1.37.79a.88.88,0,0,1,.38,1h0A.51.51,0,0,1,139.21,76.23Z"/><path class="cls-6" d="M137.91,81.88l-1.7-1a.93.93,0,0,1-.38-1h0a.51.51,0,0,1,.77-.31l1.7,1a.88.88,0,0,1,.38,1h0A.51.51,0,0,1,137.91,81.88Z"/><path class="cls-6" d="M144.53,85.7l-4.48-2.59a.88.88,0,0,1-.38-1h0a.51.51,0,0,1,.77-.32l4.48,2.59a.88.88,0,0,1,.38,1h0A.51.51,0,0,1,144.53,85.7Z"/><path class="cls-6" d="M138.62,85.49l-3.22-1.86a.9.9,0,0,1-.38-1h0a.51.51,0,0,1,.77-.32L139,84.19a.88.88,0,0,1,.38,1h0A.51.51,0,0,1,138.62,85.49Z"/><path class="cls-6" d="M157.47,93.18,155.4,92a.88.88,0,0,1-.38-1h0a.5.5,0,0,1,.77-.32l2.07,1.19a.88.88,0,0,1,.38,1h0A.5.5,0,0,1,157.47,93.18Z"/><path class="cls-6" d="M149.54,75.8l-5.7-3.29a.88.88,0,0,1-.38-1h0a.5.5,0,0,1,.77-.32l5.7,3.29a.88.88,0,0,1,.38,1h0A.51.51,0,0,1,149.54,75.8Z"/><path class="cls-6" d="M150.22,73l-9.94-5.73a.93.93,0,0,1-.38-1h0a.51.51,0,0,1,.77-.32l9.94,5.74a.91.91,0,0,1,.38,1h0A.51.51,0,0,1,150.22,73Z"/><path class="cls-6" d="M144.36,76l-5.7-3.29a.88.88,0,0,1-.38-1h0a.5.5,0,0,1,.76-.32l5.7,3.29a.88.88,0,0,1,.38,1h0A.5.5,0,0,1,144.36,76Z"/><path class="cls-6" d="M153.87,78.3l-2.08-1.2a.91.91,0,0,1-.38-1h0a.51.51,0,0,1,.77-.32L154.25,77a.9.9,0,0,1,.38,1h0A.5.5,0,0,1,153.87,78.3Z"/><path class="cls-6" d="M143.88,82.13l-6.85-4a.88.88,0,0,1-.38-1h0a.5.5,0,0,1,.77-.32l6.85,3.95a.9.9,0,0,1,.38,1h0A.51.51,0,0,1,143.88,82.13Z"/><path class="cls-6" d="M144.91,60.34l-5-2.91a.89.89,0,0,1-.38-1h0a.5.5,0,0,1,.76-.32l5,2.9a.9.9,0,0,1,.38,1h0A.51.51,0,0,1,144.91,60.34Z"/><path class="cls-6" d="M137.57,88.08l-5.83-3.37a.88.88,0,0,1-.38-1h0a.5.5,0,0,1,.77-.32L138,86.77a.9.9,0,0,1,.38,1h0A.51.51,0,0,1,137.57,88.08Z"/><path class="cls-6" d="M230.6,141.34a4.25,4.25,0,0,1-2.13-.6l-54.81-31.65a6.58,6.58,0,0,1-2.79-7.3l15.4-50.46a4.15,4.15,0,0,1,2.4-2.77,3.94,3.94,0,0,1,3.48.35L247,80.55a6.59,6.59,0,0,1,2.8,7.3l-15.4,50.46a4.17,4.17,0,0,1-2.41,2.77A3.63,3.63,0,0,1,230.6,141.34Zm-1.88-1a3.45,3.45,0,0,0,3,.32,3.66,3.66,0,0,0,2.11-2.46l15.4-50.46A6.06,6.06,0,0,0,246.7,81L191.9,49.34a3.48,3.48,0,0,0-3.05-.32,3.67,3.67,0,0,0-2.1,2.46l-15.4,50.46a6.06,6.06,0,0,0,2.56,6.72Z"/><path class="cls-6" d="M239.11,98a3.05,3.05,0,0,1-1.51-.42L189.66,69.9a4.62,4.62,0,0,1-2-5.12l2-6.42a3,3,0,0,1,1.7-2,2.81,2.81,0,0,1,2.46.24l47.94,27.68a4.63,4.63,0,0,1,2,5.12l-2,6.42a2.93,2.93,0,0,1-1.7,2A2.62,2.62,0,0,1,239.11,98Zm-46.8-41.28a2.18,2.18,0,0,0-.76.14,2.47,2.47,0,0,0-1.41,1.64l-2,6.43a4.07,4.07,0,0,0,1.73,4.53l47.94,27.68a2.31,2.31,0,0,0,2,.22,2.46,2.46,0,0,0,1.4-1.64l2-6.43a4.07,4.07,0,0,0-1.73-4.53L193.57,57.08A2.49,2.49,0,0,0,192.31,56.72Z"/><path class="cls-6" d="M232.41,114.79l-9-5.19a4.34,4.34,0,0,1-1.84-4.82l2-6.43a2.5,2.5,0,0,1,3.79-1.57l9,5.19a4.34,4.34,0,0,1,1.84,4.82l-2,6.43A2.5,2.5,0,0,1,232.41,114.79Z"/><path class="cls-6" d="M228.47,132.86a3.05,3.05,0,0,1-1.51-.42l-9-5.19a4.63,4.63,0,0,1-2-5.12l2-6.42a2.93,2.93,0,0,1,1.7-2,2.81,2.81,0,0,1,2.46.24l9,5.19a4.62,4.62,0,0,1,2,5.12l-2,6.42a2.93,2.93,0,0,1-1.7,2A2.59,2.59,0,0,1,228.47,132.86Zm-1.26-.86a2.31,2.31,0,0,0,2,.21,2.44,2.44,0,0,0,1.4-1.63l2-6.43a4.08,4.08,0,0,0-1.72-4.53l-9-5.19a2.31,2.31,0,0,0-2-.22,2.46,2.46,0,0,0-1.4,1.64l-2,6.43a4.07,4.07,0,0,0,1.73,4.53Z"/><path class="cls-6" d="M207.49,121.41A3,3,0,0,1,206,121l-27.13-15.66a4.62,4.62,0,0,1-2-5.12l7.45-24.41a3,3,0,0,1,1.7-2,2.81,2.81,0,0,1,2.46.24l27.14,15.67a4.61,4.61,0,0,1,2,5.11l-7.45,24.42a3,3,0,0,1-1.7,2A2.59,2.59,0,0,1,207.49,121.41Zm-1.26-.86a2.31,2.31,0,0,0,2,.21,2.43,2.43,0,0,0,1.4-1.64l7.46-24.41a4.1,4.1,0,0,0-1.73-4.54L188.25,74.51a2.29,2.29,0,0,0-2-.22,2.47,2.47,0,0,0-1.41,1.64l-7.45,24.42a4.07,4.07,0,0,0,1.73,4.53Z"/><path class="cls-6" d="M245,70.07a1.8,1.8,0,0,1-.89-.24,1.93,1.93,0,0,1-.88-2.35,1.41,1.41,0,0,1,.87-.8,1.71,1.71,0,0,1,1.37.17,1.92,1.92,0,0,1,.88,2.35h0a1.4,1.4,0,0,1-.86.79A1.62,1.62,0,0,1,245,70.07Zm-.42-3a1,1,0,0,0-.33,0,.93.93,0,0,0-.56.52,1.41,1.41,0,0,0,.67,1.71,1.21,1.21,0,0,0,1,.13,1,1,0,0,0,.57-.52,1.43,1.43,0,0,0-.68-1.72A1.33,1.33,0,0,0,244.61,67.11Z"/><path class="cls-6" d="M249,72.33a1.8,1.8,0,0,1-.89-.24,1.91,1.91,0,0,1-.88-2.35,1.4,1.4,0,0,1,.86-.79,1.69,1.69,0,0,1,1.38.16,1.92,1.92,0,0,1,.88,2.35,1.42,1.42,0,0,1-.87.79A1.31,1.31,0,0,1,249,72.33Zm-.42-3a1.26,1.26,0,0,0-.33,0,.92.92,0,0,0-.57.52,1.42,1.42,0,0,0,.67,1.71,1.23,1.23,0,0,0,1,.13.93.93,0,0,0,.56-.52h0a1.4,1.4,0,0,0-.67-1.71A1.27,1.27,0,0,0,248.57,69.37Z"/><path class="cls-6" d="M254.07,73.62a1.29,1.29,0,0,1-1.89.51,1.66,1.66,0,0,1-.78-2,1.29,1.29,0,0,1,1.89-.51A1.66,1.66,0,0,1,254.07,73.62Z"/><path class="cls-1" d="M54,119.65a20.91,20.91,0,0,1-10.2-2.44c-2.77-1.6-4.3-3.74-4.3-6s1.53-4.43,4.3-6c5.62-3.25,14.78-3.25,20.41,0,2.77,1.6,4.29,3.74,4.29,6s-1.52,4.44-4.29,6h0A20.94,20.94,0,0,1,54,119.65Zm0-16.45a20.39,20.39,0,0,0-10,2.37c-2.61,1.51-4,3.5-4,5.6s1.44,4.1,4,5.61c5.49,3.17,14.42,3.16,19.91,0h0c2.61-1.51,4-3.5,4-5.61s-1.43-4.09-4-5.6A20.43,20.43,0,0,0,54,103.2Z"/><path class="cls-2" d="M54,111.42A20.91,20.91,0,0,1,43.8,109c-2.77-1.6-4.3-3.74-4.3-6s1.53-4.44,4.3-6c5.63-3.25,14.78-3.25,20.41,0,2.77,1.6,4.29,3.74,4.29,6s-1.52,4.43-4.29,6h0A20.94,20.94,0,0,1,54,111.42ZM54,95a20.39,20.39,0,0,0-10,2.37c-2.61,1.51-4,3.5-4,5.61s1.44,4.09,4,5.6c5.49,3.17,14.42,3.17,19.91,0h0c2.61-1.51,4-3.5,4-5.6s-1.43-4.1-4-5.61A20.43,20.43,0,0,0,54,95Z"/><path class="cls-2" d="M70.55,57.23H37.46l3.07,35.83h0c0,2,1.32,4,3.95,5.5,5.26,3,13.79,3,19.05,0,2.63-1.52,3.94-3.51,3.94-5.5Z"/><path class="cls-10" d="M70.55,57.23H37.46l.5,5.9A13.06,13.06,0,0,0,41,65.89c6.32,4.19,16.76,5,23.88,2l-1.1,26.21a5.16,5.16,0,0,1-1.19,3.12c-1.07,1.26-3.13,2.75-7.1,3.59a18.81,18.81,0,0,0,8-2.23c2.63-1.52,3.94-3.51,3.94-5.5l2.47-28.73h0Z"/><ellipse class="cls-11" cx="54" cy="57.23" rx="16.55" ry="9.55"/><path class="cls-11" d="M64.08,59.68c-5.57,3.22-14.59,3.22-20.15,0s-5.57-8.42,0-11.63,14.59-3.22,20.16,0S69.65,56.47,64.08,59.68Z"/><path class="cls-12" d="M71.53,56.78h0v-.07l-.31-3.21,0,0c-.14-2.42-1.81-4.83-5-6.68C59.45,43,48.56,43,41.84,46.85c-3.29,1.9-5,4.38-5,6.87h0l-.3,2.86a1.5,1.5,0,0,0,0,.22v.05h0c-.18,2.73,1.53,5.48,5.13,7.56,6.85,4,18,4,24.81,0C70,62.3,71.74,59.52,71.53,56.78Z"/><ellipse class="cls-13" cx="54" cy="54.03" rx="14.25" ry="8.23"/><path class="cls-11" d="M45.62,49.27c5.56-3.21,14.59-3.21,20.15,0l.2.13a11.3,11.3,0,0,0-1.89-1.35c-5.57-3.22-14.59-3.22-20.16,0s-5.55,8.28-.19,11.51C40.15,56.37,40.78,52.07,45.62,49.27Z"/><path class="cls-14" d="M43.92,49.47c5.57-3.21,14.59-3.21,20.16,0,2.47,1.43,3.84,3.25,4.12,5.11.35-2.34-1-4.74-4.12-6.53-5.57-3.22-14.59-3.22-20.16,0-3.09,1.79-4.46,4.19-4.11,6.53C40.09,52.72,41.46,50.9,43.92,49.47Z"/><path class="cls-15" d="M66.27,46.92c-6.71-4-17.64-4-24.41-.21S35,56.85,41.73,60.81s17.64,4,24.42.21S73,50.88,66.27,46.92ZM64.08,59.68a18.54,18.54,0,0,1-6.48,2.14L57.34,61a.82.82,0,0,0-.78-.58H51.44a.83.83,0,0,0-.78.58l-.25.85a18.41,18.41,0,0,1-6.48-2.14c-5.57-3.21-5.57-8.42,0-11.63s14.59-3.22,20.16,0S69.65,56.47,64.08,59.68Z"/><rect class="cls-16" x="52.09" y="61.44" width="3.83" height="0.83" rx="0.39"/><path class="cls-17" d="M55.53,61.44H52.47a.38.38,0,0,0-.38.38v.06a.36.36,0,0,0,0,.1.38.38,0,0,1,.36-.28h3.06a.39.39,0,0,1,.37.28.36.36,0,0,0,0-.1v-.06A.38.38,0,0,0,55.53,61.44Z"/><path class="cls-18" d="M55.13,62s11.44-3.83,6.81-17-13.65-17.15-10-27.66c0,0-5.69,8.51-.37,20S58,47.56,58,53.07A9.93,9.93,0,0,1,52.61,62Z"/><path class="cls-18" d="M56.16,17.59S54.93,9.44,62.57,1.23c0,0-6.76,15.1-4.55,22.56C58,23.79,56.23,19.05,56.16,17.59Z"/><path class="cls-6" d="M176.8,31.4,154.63,18.67a.88.88,0,0,1-.38-1h0a.51.51,0,0,1,.77-.32L177.19,30.1a.91.91,0,0,1,.38,1h0A.51.51,0,0,1,176.8,31.4Z"/><path class="cls-6" d="M213.13,52.38,191,39.65a.91.91,0,0,1-.38-1h0a.5.5,0,0,1,.77-.32l22.17,12.72a.9.9,0,0,1,.38,1h0A.51.51,0,0,1,213.13,52.38Z"/><path class="cls-6" d="M188.26,38.07l-9-5.18a.9.9,0,0,1-.38-1h0a.5.5,0,0,1,.76-.32l9,5.19a.88.88,0,0,1,.38,1h0A.51.51,0,0,1,188.26,38.07Z"/><polygon class="cls-6" points="189.66 92.17 186.94 90.61 183.54 101.75 186.26 103.32 189.66 92.17"/><polygon class="cls-6" points="194.88 97.91 192.16 96.34 189.47 105.17 192.19 106.74 194.88 97.91"/><polygon class="cls-6" points="202.61 95.42 199.89 93.86 195.39 108.59 198.11 110.15 202.61 95.42"/><polygon class="cls-6" points="210.31 93.03 207.59 91.46 201.32 112 204.04 113.57 210.31 93.03"/><rect class="cls-19" x="96.97" y="23.72" width="0.5" height="9.05"/><rect class="cls-2" x="97" y="34.85" width="0.45" height="2.58"/><rect class="cls-2" x="97" y="39.6" width="0.45" height="2.58"/><rect class="cls-2" x="97" y="44.35" width="0.45" height="7.33"/><rect class="cls-2" x="97" y="53.85" width="0.45" height="2.58"/><rect class="cls-19" x="267.11" y="132.6" width="0.5" height="9.05"/><rect class="cls-2" x="267.14" y="143.72" width="0.45" height="2.58"/><rect class="cls-2" x="267.14" y="148.47" width="0.45" height="2.58"/><rect class="cls-2" x="267.14" y="153.22" width="0.45" height="7.33"/><rect class="cls-2" x="267.14" y="162.72" width="0.45" height="2.58"/><rect class="cls-2" x="0.03" y="165.37" width="0.45" height="9.05"/><rect class="cls-19" y="153.51" width="0.5" height="9.18"/><rect class="cls-19" y="139.88" width="0.5" height="9.18"/></g></g></svg>