<?xml version="1.0" encoding="UTF-8" standalone="no"?>
<svg
   xmlns:dc="http://purl.org/dc/elements/1.1/"
   xmlns:cc="http://creativecommons.org/ns#"
   xmlns:rdf="http://www.w3.org/1999/02/22-rdf-syntax-ns#"
   xmlns:svg="http://www.w3.org/2000/svg"
   xmlns="http://www.w3.org/2000/svg"
   xmlns:xlink="http://www.w3.org/1999/xlink"
   xmlns:sodipodi="http://sodipodi.sourceforge.net/DTD/sodipodi-0.dtd"
   xmlns:inkscape="http://www.inkscape.org/namespaces/inkscape"
   version="1.1"
   preserveAspectRatio="xMidYMid meet"
   width="360"
   height="240"
   viewBox="0 0 360 240"
   id="svg271"
   sodipodi:docname="m5.svg"
   inkscape:version="0.92.4 (5da689c313, 2019-01-14)">
  <metadata
     id="metadata275">
    <rdf:RDF>
      <cc:Work
         rdf:about="">
        <dc:format>image/svg+xml</dc:format>
        <dc:type
           rdf:resource="http://purl.org/dc/dcmitype/StillImage" />
        <dc:title />
      </cc:Work>
    </rdf:RDF>
  </metadata>
  <sodipodi:namedview
     pagecolor="#ffffff"
     bordercolor="#666666"
     borderopacity="1"
     objecttolerance="10"
     gridtolerance="10"
     guidetolerance="10"
     inkscape:pageopacity="0"
     inkscape:pageshadow="2"
     inkscape:window-width="1600"
     inkscape:window-height="877"
     id="namedview273"
     showgrid="false"
     inkscape:snap-midpoints="false"
     inkscape:zoom="0.69532166"
     inkscape:cx="-392.5913"
     inkscape:cy="177.52794"
     inkscape:window-x="-8"
     inkscape:window-y="-8"
     inkscape:window-maximized="1"
     inkscape:current-layer="svg271" />
  <defs
     id="defs83">
    <path
       d="M253.7606931898396 45.94741512841708 C256.4570060393295 45.94741512841708 258.6460699776193 48.1364790667069 258.6460699776193 50.832791916196754 C258.6460699776193 50.832791916196754 258.6460699776193 50.832791916196754 258.6460699776193 50.832791916196754 C258.6460699776193 53.52910476568661 256.4570060393295 55.71816870397646 253.7606931898396 55.71816870397646 C248.91688479651293 55.71816870397646 210.16641764989942 55.71816870397646 205.32260925657272 55.71816870397646 C202.62629640708286 55.71816870397646 200.437232468793 53.52910476568661 200.437232468793 50.832791916196754 C200.437232468793 50.832791916196754 200.437232468793 50.832791916196754 200.437232468793 50.832791916196754 C200.437232468793 48.1364790667069 202.62629640708286 45.94741512841708 205.32260925657272 45.94741512841708 C210.16641764989942 45.94741512841708 248.91688479651293 45.94741512841708 253.7606931898396 45.94741512841708  Z "
       id="FkQr8AsxKU" />
    <linearGradient
       id="gradientfe6hLb9xvP"
       gradientUnits="userSpaceOnUse"
       x1="204.47087936538142"
       y1="51.01382112532448"
       x2="216.08413780172646"
       y2="72.9393279893385">
      <stop
         style="stop-color:rgba(153,198,255,1)"
         offset="0%"
         id="stop3" />
      <stop
         style="stop-color:rgba(179,213,255,1)"
         offset="100%"
         id="stop5" />
    </linearGradient>
    <path
       d="M281.5935487701764 26.51018511262015 C285.56710515931695 26.51018511262015 288.79312880114867 29.73620875445181 288.79312880114867 33.70976514359239 C288.79312880114867 33.70976514359239 288.79312880114867 33.70976514359239 288.79312880114867 33.70976514359239 C288.79312880114867 37.683321532732975 285.56710515931695 40.90934517456469 281.5935487701764 40.90934517456469 C274.4552280843118 40.90934517456469 217.34866259739465 40.90934517456469 210.21034191153 40.90934517456469 C206.23678552238943 40.90934517456469 203.01076188055774 37.683321532732975 203.01076188055774 33.70976514359239 C203.01076188055774 33.70976514359239 203.01076188055774 33.70976514359239 203.01076188055774 33.70976514359239 C203.01076188055774 29.73620875445181 206.23678552238943 26.51018511262015 210.21034191153 26.51018511262015 C217.34866259739465 26.51018511262015 274.4552280843118 26.51018511262015 281.5935487701764 26.51018511262015  Z "
       id="vjsKW5GKt2" />
    <linearGradient
       id="gradientL1OecPDAHf"
       gradientUnits="userSpaceOnUse"
       x1="208.95514752575778"
       y1="33.97654789867465"
       x2="226.0696070986558"
       y2="66.28816852575886">
      <stop
         style="stop-color:rgba(153,198,255,1)"
         offset="0%"
         id="stop9" />
      <stop
         style="stop-color:rgba(179,213,255,1)"
         offset="100%"
         id="stop11" />
    </linearGradient>
    <path
       d="M185.12618718263087 154.7930848727882 L186.4206133553992 155.34052500005484 L187.60291669860635 156.07463671596102 L188.6544600224826 156.97678283073705 L189.55660613725863 158.02832615461332 L190.29071785316472 159.21062949782038 L190.83815798043148 160.50505567058877 L191.18028932928908 161.89296748314868 L191.29847470996822 163.3557277457307 L191.18028932928908 164.81848800831276 L190.8381579804314 166.20639982087272 L190.29071785316472 167.500825993641 L189.55660613725863 168.6831293368481 L188.65446002248257 169.73467266072444 L187.60291669860632 170.63681877550044 L186.4206133553992 171.37093049140654 L185.12618718263093 171.9183706186733 L183.738275370071 172.26050196753096 L182.2755151074889 172.37868734821012 L121.99204729254997 172.37868734821012 L121.99204729254997 178.59890632538645 L176.6056457186017 178.59890632538645 L178.30926346345697 178.7365520605475 L179.92570824436578 179.13501861169402 L181.43327407982312 179.77259999732115 L182.81025498832426 180.62759023592415 L184.03494498836406 181.67828334599795 L185.0856380984379 182.9029733460378 L185.94062833704078 184.2799542545388 L186.57820972266808 185.78752008999626 L186.9766762738146 187.40396487090504 L187.1143220089756 189.1075826157604 L186.97667627381458 190.8112003606158 L186.57820972266802 192.42764514152458 L185.94062833704083 193.93521097698192 L185.08563809843793 195.31219188548312 L184.0349449883641 196.53688188552292 L182.81025498832426 197.58757499559673 L181.4332740798231 198.4425652341996 L179.9257082443658 199.0801466198269 L178.30926346345697 199.47861317097338 L176.6056457186017 199.61625890613445 L72.41303861940447 199.61625890613445 L70.7094208745491 199.4786131709734 L69.09297609364029 199.08014661982685 L67.58541025818292 198.44256523419966 L66.20842934968188 197.58757499559675 L64.98373934964201 196.5368818855229 L63.933046239568164 195.31219188548312 L63.07805600096521 193.93521097698195 L62.44047461533808 192.42764514152464 L62.042008064191535 190.81120036061583 L61.90436232903049 189.1075826157604 L62.042008064191535 187.40396487090504 L62.44047461533806 185.78752008999624 L63.07805600096522 184.27995425453884 L63.93304623956817 182.90297334603787 L64.983739349642 181.67828334599795 L66.20842934968186 180.6275902359241 L67.58541025818292 179.77259999732115 L69.0929760936403 179.1350186116941 L70.7094208745491 178.7365520605475 L72.41303861940447 178.59890632538645 L102.69231595492523 178.59890632538645 L102.90444021787123 178.5817961557246 L103.384666445733 178.46341655436353 L103.83254605347801 178.27399882269032 L104.2416304560738 178.0199915457377 L104.60547106848784 177.70784330853812 L104.91761930568738 177.3440026961242 L105.17162658263999 176.93491829352837 L105.36104431431313 176.48703868578332 L105.47942391567423 176.00681245792154 L105.52031680169071 175.50068819497557 L105.47942391567423 174.99456393202962 L105.36104431431316 174.51433770416787 L105.17162658263997 174.06645809642276 L104.91761930568738 173.65737369382694 L104.60547106848784 173.293533081413 L104.24163045607384 172.98138484421344 L103.83254605347803 172.72737756726076 L103.38466644573296 172.53795983558766 L102.90444021787123 172.41958023422654 L102.39831595492524 172.37868734821012 L92.81365913670231 172.37868734821012 L91.35089887412028 172.26050196753096 L89.96298706156033 171.91837061867324 L88.66856088879202 171.37093049140657 L87.48625754558495 170.63681877550047 L86.4347142217086 169.7346726607244 L85.53256810693259 168.68312933684805 L84.79845639102648 167.50082599364094 L84.25101626375981 166.20639982087275 L83.90888491490212 164.81848800831276 L83.79069953422297 163.3557277457307 L83.9088849149021 161.89296748314865 L84.25101626375978 160.50505567058872 L84.79845639102648 159.2106294978204 L85.5325681069326 158.02832615461335 L86.4347142217086 156.97678283073705 L87.48625754558492 156.07463671596102 L88.668560888792 155.34052500005487 L89.96298706156036 154.79308487278826 L91.35089887412029 154.45095352393054 L92.81365913670231 154.33276814325137 L182.2755151074889 154.33276814325137 L183.73827537007094 154.4509535239305 L185.12618718263087 154.7930848727882  Z "
       id="pmk4vsBMHu" />
    <linearGradient
       id="gradientDlqhm8RqGk"
       gradientUnits="userSpaceOnUse"
       x1="102.56233626444188"
       y1="192.83432426028452"
       x2="116.91384206196216"
       y2="162.83276814325131">
      <stop
         style="stop-color:rgba(179,213,255,1)"
         offset="0%"
         id="stop15" />
      <stop
         style="stop-color:rgba(153,198,255,1)"
         offset="100%"
         id="stop17" />
    </linearGradient>
    <path
       d="M244.82282463801744 11.358934589782741 C246.6582463838021 11.358934589782741 248.1483759716985 12.849064177679175 248.1483759716985 14.684485923463825 C248.1483759716985 27.643149977661324 248.1483759716985 131.3124624112413 248.1483759716985 144.27112646543878 C248.1483759716985 146.10654821122347 246.6582463838021 147.5966777991199 244.82282463801744 147.5966777991199 C227.93114503641468 147.5966777991199 92.7977082235924 147.5966777991199 75.9060286219896 147.5966777991199 C74.07060687620496 147.5966777991199 72.58047728830854 146.10654821122347 72.58047728830854 144.27112646543878 C72.58047728830854 131.3124624112413 72.58047728830854 27.643149977661324 72.58047728830854 14.684485923463825 C72.58047728830854 12.849064177679175 74.07060687620496 11.358934589782741 75.9060286219896 11.358934589782741 C92.7977082235924 11.358934589782741 227.93114503641465 11.358934589782741 244.82282463801744 11.358934589782741  Z "
       id="wlYfnlnUnm" />
    <path
       d="M208.65835098897495 37.44505926123951 C210.4937727347596 37.44505926123951 211.983902322656 38.75619598702423 211.983902322656 40.371148725194686 C211.983902322656 51.77323113236953 211.983902322656 142.98989038976836 211.983902322656 154.3919727969432 C211.983902322656 156.00692553511365 210.4937727347596 157.3180622608984 208.65835098897495 157.3180622608984 C191.76667138737218 157.3180622608984 56.63323457454991 157.3180622608984 39.74155497294713 157.3180622608984 C37.906133227162485 157.3180622608984 36.41600363926605 156.00692553511365 36.41600363926605 154.3919727969432 C36.41600363926605 142.98989038976836 36.41600363926605 51.77323113236953 36.41600363926605 40.371148725194686 C36.41600363926605 38.75619598702423 37.906133227162485 37.44505926123951 39.74155497294713 37.44505926123951 C56.63323457454991 37.44505926123951 191.76667138737216 37.44505926123951 208.65835098897495 37.44505926123951  Z "
       id="VrDFvEh9Fm" />
    <path
       d="M209.70901027805914 37.61471611234703 L210.18609106694106 37.816483639361316 L210.62184725260963 38.08705186790927 L211.0094098104847 38.4195517734108 L211.3419097159863 38.80711433128589 L211.61247794453416 39.24287051695444 L211.81424547154853 39.71995130583645 L211.94034327244913 40.23148767335185 L211.983902322656 40.77061059492059 L211.983902322656 55.132352941176435 L36.41600363926606 55.132352941176435 L36.41600363926606 40.77061059492059 L36.45956268947294 40.23148767335185 L36.58566049037356 39.71995130583646 L36.78742801738786 39.24287051695443 L37.05799624593581 38.80711433128588 L37.390496151437354 38.41955177341081 L37.778058709312425 38.08705186790927 L38.213814894980985 37.81648363936132 L38.69089568386299 37.61471611234702 L39.202432051378395 37.488618311446395 L39.741554972947135 37.44505926123951 L208.65835098897495 37.44505926123951 L209.19747391054372 37.488618311446395 L209.70901027805914 37.61471611234703  Z "
       id="KlBmpXJs5O" />
    <clipPath
       id="clipqETs36pAE7">
      <use
         xlink:href="#KlBmpXJs5O"
         opacity="1"
         id="use23" />
    </clipPath>
    <path
       d="M46.67484135200159 46.52523868760707 C46.67484135200159 47.79248278529295 45.64599992665303 48.821324210641514 44.37875582896716 48.821324210641514 C43.11151173128129 48.821324210641514 42.08267030593272 47.79248278529295 42.08267030593272 46.52523868760707 C42.08267030593272 45.2579945899212 43.11151173128129 44.22915316457264 44.37875582896716 44.22915316457264 C45.64599992665303 44.22915316457264 46.67484135200159 45.2579945899212 46.67484135200159 46.52523868760707  Z "
       id="j8DysyHeal" />
    <path
       d="M53.03833321306092 46.52523868760707 C53.03833321306092 47.79248278529295 52.00949178771235 48.821324210641514 50.74224769002648 48.821324210641514 C49.47500359234061 48.821324210641514 48.446162166992046 47.79248278529295 48.446162166992046 46.52523868760707 C48.446162166992046 45.2579945899212 49.47500359234061 44.22915316457264 50.74224769002648 44.22915316457264 C52.00949178771235 44.22915316457264 53.03833321306092 45.2579945899212 53.03833321306092 46.52523868760707  Z "
       id="EraDGy1xAI" />
    <path
       d="M59.401825074120254 46.52523868760707 C59.401825074120254 47.79248278529295 58.37298364877168 48.821324210641514 57.10573955108581 48.821324210641514 C55.83849545339994 48.821324210641514 54.809654028051376 47.79248278529295 54.809654028051376 46.52523868760707 C54.809654028051376 45.2579945899212 55.83849545339994 44.22915316457264 57.10573955108581 44.22915316457264 C58.37298364877168 44.22915316457264 59.401825074120254 45.2579945899212 59.401825074120254 46.52523868760707  Z "
       id="u5j9u8csmt" />
    <path
       d="M206.71414301317657 41.788022593134365 C207.5742223812315 41.788022593134365 208.27249770526612 42.49246464324889 208.27249770526612 43.36013968837736 C208.27249770526612 43.94007621684478 208.27249770526612 48.57956844458411 208.27249770526612 49.15950497305153 C208.27249770526612 50.027180018180005 207.5742223812315 50.73162206829453 206.71414301317657 50.73162206829453 C192.46731811705132 50.73162206829453 78.49271894804933 50.73162206829453 64.24589405192407 50.73162206829453 C63.385814683869135 50.73162206829453 62.68753935983454 50.027180018180005 62.68753935983454 49.15950497305153 C62.68753935983454 48.57956844458411 62.68753935983454 43.94007621684478 62.68753935983454 43.36013968837736 C62.68753935983454 42.49246464324889 63.385814683869135 41.788022593134365 64.24589405192407 41.788022593134365 C78.49271894804933 41.788022593134365 192.46731811705132 41.788022593134365 206.71414301317657 41.788022593134365  Z "
       id="qubIOPsbu0" />
    <clipPath
       id="clipu3TO1f35Kh">
      <use
         xlink:href="#qubIOPsbu0"
         opacity="1"
         id="use30" />
    </clipPath>
    <path
       d="M317.15171514023325 66.27285574835985 C320.70178778759805 66.27285574835985 323.58399636073386 69.15506432149553 323.58399636073386 72.70513696886037 C323.58399636073386 84.62629816418801 323.58399636073386 179.99558772680922 323.58399636073386 191.9167489221369 C323.58399636073386 195.4668215695017 320.70178778759805 198.3490301426374 317.15171514023325 198.3490301426374 C296.53982731809606 198.3490301426374 131.644724740998 198.3490301426374 111.03283691886072 198.3490301426374 C107.48276427149588 198.3490301426374 104.60055569836018 195.4668215695017 104.60055569836018 191.9167489221369 C104.60055569836018 179.99558772680922 104.60055569836018 84.62629816418801 104.60055569836018 72.70513696886037 C104.60055569836018 69.15506432149553 107.48276427149588 66.27285574835985 111.03283691886072 66.27285574835985 C131.644724740998 66.27285574835985 296.53982731809606 66.27285574835985 317.15171514023325 66.27285574835985  Z "
       id="tjUkwNjK7u" />
    <linearGradient
       id="gradientbicsNA9pIs"
       gradientUnits="userSpaceOnUse"
       x1="182.63422085749275"
       y1="66.27285574835983"
       x2="323.58399636073386"
       y2="198.3490301426374">
      <stop
         style="stop-color:rgba(255,254,254,1)"
         offset="0%"
         id="stop34" />
      <stop
         style="stop-color:rgba(232,239,240,1)"
         offset="100%"
         id="stop36" />
    </linearGradient>
    <path
       d="M113.6803568965563 75.69571194498259 L314.5041951625378 75.69571194498259 L314.5041951625378 184.65332632333428 L113.6803568965563 184.65332632333428 L113.6803568965563 75.69571194498259  Z "
       id="BkBRXhLSSs" />
    <path
       d="M195.87189095102775 198.34903014263742 L231.00504380590723 198.34903014263742 C230.1548207094592 212.0726136131612 234.43353682499986 220.27566292296603 243.8411921525293 222.95817807205188 C243.8411921525293 222.95817807205188 182.63422085749278 222.95817807205188 182.63422085749278 222.95817807205188 C192.04187618502215 220.27566292296603 196.45443288286714 212.0726136131612 195.87189095102775 198.34903014263742  Z "
       id="ICH3foGH39" />
    <linearGradient
       id="gradientpdmOpAVqYV"
       gradientUnits="userSpaceOnUse"
       x1="183.51188984100537"
       y1="189.34055955440212"
       x2="255.98870291104402"
       y2="228.64106541021727">
      <stop
         style="stop-color:rgba(179,213,255,1)"
         offset="0%"
         id="stop41" />
      <stop
         style="stop-color:rgba(232,239,240,1)"
         offset="100%"
         id="stop43" />
    </linearGradient>
    <path
       d="M163.5151447640897 221.88996616638184 L262.96026824593235 221.88996616638184 L262.96026824593235 228.64106541021727 L163.5151447640897 228.64106541021727 L163.5151447640897 221.88996616638184  Z "
       id="Vk2DCUUFYk" />
    <path
       d="M245.87348392710166 11.528591440890253 L246.35056471598358 11.730358967904557 L246.7863209016522 12.000927196452503 L247.17388345952722 12.333427101954042 L247.5063833650288 12.720989659829117 L247.7769515935767 13.156745845497678 L247.97871912059108 13.633826634379687 L248.10481692149165 14.145363001895085 L248.14837597169853 14.684485923463825 L248.14837597169853 29.046228269719666 L72.58047728830857 29.046228269719666 L72.58047728830857 14.684485923463825 L72.62403633851547 14.145363001895085 L72.75013413941609 13.633826634379691 L72.95190166643037 13.156745845497678 L73.22246989497833 12.720989659829115 L73.55496980047987 12.333427101954042 L73.94253235835495 12.000927196452505 L74.37828854402352 11.730358967904557 L74.85536933290552 11.528591440890251 L75.36690570042092 11.402493639989626 L75.90602862198965 11.358934589782741 L244.82282463801747 11.358934589782741 L245.36194755958624 11.402493639989627 L245.87348392710166 11.528591440890253  Z "
       id="hpC0GAcHMk" />
    <clipPath
       id="clipKcVYuRPbm9">
      <use
         xlink:href="#hpC0GAcHMk"
         opacity="1"
         id="use48" />
    </clipPath>
    <path
       d="M82.83931500104413 20.439114016150306 C82.83931500104413 21.70635811383618 81.81047357569555 22.735199539184748 80.54322947800969 22.735199539184748 C79.27598538032382 22.735199539184748 78.24714395497526 21.70635811383618 78.24714395497526 20.439114016150306 C78.24714395497526 19.171869918464438 79.27598538032382 18.14302849311587 80.54322947800969 18.14302849311587 C81.81047357569555 18.14302849311587 82.83931500104413 19.171869918464438 82.83931500104413 20.439114016150306  Z "
       id="c3jBPNOvrr" />
    <path
       d="M89.20280686210344 20.439114016150306 C89.20280686210344 21.70635811383618 88.17396543675487 22.735199539184748 86.90672133906901 22.735199539184748 C85.63947724138313 22.735199539184748 84.61063581603457 21.70635811383618 84.61063581603457 20.439114016150306 C84.61063581603457 19.171869918464438 85.63947724138313 18.14302849311587 86.90672133906901 18.14302849311587 C88.17396543675487 18.14302849311587 89.20280686210344 19.171869918464438 89.20280686210344 20.439114016150306  Z "
       id="XCmDpu1wkL" />
    <path
       d="M95.56629872316277 20.439114016150306 C95.56629872316277 21.70635811383618 94.5374572978142 22.735199539184748 93.27021320012834 22.735199539184748 C92.00296910244246 22.735199539184748 90.9741276770939 21.70635811383618 90.9741276770939 20.439114016150306 C90.9741276770939 19.171869918464438 92.00296910244246 18.14302849311587 93.27021320012834 18.14302849311587 C94.5374572978142 18.14302849311587 95.56629872316277 19.171869918464438 95.56629872316277 20.439114016150306  Z "
       id="ZurUYv7NHq" />
    <path
       d="M242.87861666221914 15.70189792167759 C243.73869603027407 15.70189792167759 244.4369713543087 16.406339971792114 244.4369713543087 17.274015016920586 C244.4369713543087 17.853951545388007 244.4369713543087 22.49344377312734 244.4369713543087 23.073380301594757 C244.4369713543087 23.941055346723232 243.73869603027407 24.645497396837754 242.87861666221914 24.645497396837754 C228.6317917660939 24.645497396837754 114.6571925970919 24.645497396837754 100.41036770096665 24.645497396837754 C99.55028833291172 24.645497396837754 98.85201300887712 23.941055346723232 98.85201300887712 23.073380301594757 C98.85201300887712 22.49344377312734 98.85201300887712 17.853951545388007 98.85201300887712 17.274015016920586 C98.85201300887712 16.406339971792114 99.55028833291172 15.70189792167759 100.41036770096665 15.70189792167759 C114.6571925970919 15.70189792167759 228.6317917660939 15.70189792167759 242.87861666221914 15.70189792167759  Z "
       id="ph9YgPzL6U" />
    <clipPath
       id="clipey1WdRr3l5">
      <use
         xlink:href="#ph9YgPzL6U"
         opacity="1"
         id="use55" />
    </clipPath>
    <path
       d="M261.8212144511127 8.45553846820509 L261.9274540670935 8.500469442343979 L262.0244912375384 8.56072142768368 L262.11079632103116 8.634764782807988 L262.1848396761555 8.721069866300702 L262.24509166149517 8.818107036745618 L262.2900226356341 8.92434665272654 L262.31810295715593 9.03825907282726 L262.3278029846446 9.158314655631582 L262.3278029846446 10.61837805334569 L263.78786638235886 10.61837805334569 L263.9079219651631 10.628078080834365 L264.0218343852639 10.65615840235625 L264.12807400124467 10.701089376495137 L264.22511117168966 10.76134136183484 L264.3114162551824 10.835384716959148 L264.3854596103067 10.921689800451862 L264.44571159564634 11.01872697089678 L264.49064256978534 11.1249665868777 L264.51872289130716 11.23887900697842 L264.52842291879585 11.358934589782741 L264.5187228913072 11.478990172587064 L264.49064256978534 11.592902592687787 L264.44571159564634 11.699142208668702 L264.38545961030667 11.796179379113621 L264.3114162551824 11.882484462606335 L264.2251111716897 11.956527817730642 L264.1280740012447 12.016779803070342 L264.0218343852638 12.061710777209237 L263.9079219651631 12.089791098731121 L263.78786638235886 12.099491126219792 L262.3278029846446 12.099491126219792 L262.3278029846446 13.5595545239339 L262.318102957156 13.679610106738222 L262.29002263563416 13.793522526838947 L262.2450916614951 13.899762142819858 L262.18483967615543 13.996799313264779 L262.11079632103116 14.083104396757493 L262.0244912375385 14.157147751881801 L261.9274540670935 14.217399737221498 L261.8212144511126 14.262330711360395 L261.70730203101186 14.290411032882277 L261.58724644820757 14.30011106037095 L261.46719086540327 14.290411032882279 L261.35327844530264 14.262330711360399 L261.2470388293216 14.217399737221498 L261.15000165887665 14.157147751881798 L261.063696575384 14.083104396757493 L260.9896532202597 13.99679931326478 L260.9294012349199 13.89976214281986 L260.8844702607811 13.793522526838942 L260.8563899392592 13.679610106738222 L260.8466899117705 13.5595545239339 L260.8466899117705 12.099491126219792 L259.38662651405645 12.099491126219792 L259.26657093125215 12.089791098731121 L259.1526585111515 12.061710777209237 L259.04641889517046 12.01677980307034 L258.9493817247256 11.956527817730642 L258.86307664123285 11.882484462606335 L258.7890332861086 11.796179379113624 L258.72878130076884 11.699142208668704 L258.68385032662997 11.592902592687784 L258.6557700051081 11.478990172587062 L258.6460699776194 11.358934589782741 L258.6557700051081 11.238879006978422 L258.68385032663 11.124966586877704 L258.7287813007688 11.018726970896777 L258.7890332861085 10.921689800451862 L258.86307664123285 10.835384716959151 L258.94938172472564 10.761341361834843 L259.04641889517046 10.701089376495139 L259.15265851115146 10.65615840235625 L259.26657093125215 10.628078080834365 L259.38662651405645 10.61837805334569 L260.8466899117705 10.61837805334569 L260.8466899117705 9.158314655631582 L260.8563899392592 9.03825907282726 L260.88447026078114 8.924346652726541 L260.92940123491985 8.818107036745618 L260.9896532202597 8.721069866300702 L261.063696575384 8.634764782807988 L261.1500016588767 8.560721427683683 L261.2470388293216 8.500469442343979 L261.3532784453025 8.455538468205088 L261.46719086540327 8.427458146683204 L261.58724644820757 8.41775811919453 L261.7073020310119 8.427458146683204 L261.8212144511127 8.45553846820509  Z "
       id="wrjq63xa1O" />
    <path
       d="M307.6264064673512 29.709440095241238 L307.73264608333193 29.754371069380117 L307.8296832537769 29.81462305471982 L307.91598833726965 29.888666409844134 L307.99003169239404 29.974971493336845 L308.05028367773366 30.07200866378176 L308.0952146518726 30.178248279762684 L308.1232949733945 30.292160699863405 L308.1329950008831 30.412216282667725 L308.1329950008831 31.872279680381837 L309.59305839859724 31.872279680381837 L309.7131139814016 31.88197970787051 L309.82702640150234 31.910060029392397 L309.93326601748316 31.954991003531273 L310.0303031879281 32.01524298887098 L310.1166082714208 32.08928634399529 L310.19065162654516 32.17559142748801 L310.2509036118849 32.272628597932915 L310.2958345860237 32.37886821391385 L310.3239149075456 32.492780634014565 L310.3336149350343 32.612836216818884 L310.32391490754566 32.73289179962321 L310.2958345860238 32.846804219723936 L310.2509036118849 32.95304383570484 L310.1906516265451 33.05008100614977 L310.11660827142083 33.136386089642485 L310.0303031879281 33.21042944476679 L309.93326601748316 33.270681430106485 L309.8270264015023 33.315612404245385 L309.71311398140153 33.343692725767255 L309.59305839859724 33.35339275325593 L308.1329950008831 33.35339275325593 L308.1329950008831 34.81345615097005 L308.1232949733945 34.93351173377437 L308.09521465187265 35.04742415387509 L308.0502836777336 35.153663769855996 L307.9900316923939 35.250700940300916 L307.91598833726965 35.337006023793634 L307.829683253777 35.411049378917944 L307.732646083332 35.47130136425764 L307.62640646735116 35.51623233839654 L307.51249404725036 35.544312659918425 L307.39243846444606 35.554012687407095 L307.27238288164176 35.54431265991843 L307.1584704615411 35.51623233839655 L307.05223084556 35.471301364257634 L306.95519367511514 35.411049378917944 L306.86888859162246 35.337006023793634 L306.7948452364982 35.25070094030093 L306.73459325115846 35.153663769856 L306.6896622770196 35.047424153875085 L306.6615819554977 34.93351173377436 L306.651881928009 34.81345615097005 L306.651881928009 33.35339275325593 L305.1918185302949 33.35339275325594 L305.0717629474906 33.343692725767276 L304.9578505273899 33.3156124042454 L304.8516109114089 33.270681430106485 L304.75457374096396 33.21042944476679 L304.66826865747134 33.136386089642485 L304.59422530234707 33.050081006149775 L304.5339733170073 32.95304383570485 L304.4890423428684 32.846804219723936 L304.4609620213465 32.732891799623204 L304.4512619938578 32.612836216818884 L304.4609620213465 32.49278063401456 L304.48904234286846 32.378868213913854 L304.5339733170072 32.272628597932915 L304.594225302347 32.175591427488 L304.6682686574713 32.08928634399529 L304.7545737409641 32.01524298887099 L304.8516109114089 31.95499100353128 L304.9578505273899 31.91006002939239 L305.0717629474906 31.881979707870507 L305.1918185302949 31.872279680381837 L306.651881928009 31.872279680381837 L306.651881928009 30.412216282667725 L306.66158195549764 30.292160699863405 L306.6896622770197 30.17824827976269 L306.7345932511584 30.07200866378176 L306.79484523649813 29.974971493336845 L306.86888859162246 29.888666409844138 L306.9551936751152 29.814623054719828 L307.0522308455601 29.75437106938012 L307.158470461541 29.709440095241234 L307.27238288164176 29.68135977371935 L307.39243846444606 29.671659746230674 L307.5124940472504 29.68135977371935 L307.6264064673512 29.709440095241238  Z "
       id="EjP2olrBgk" />
    <path
       d="M302.00140646735116 40.959440095241234 L302.107646083332 41.00437106938011 L302.20468325377686 41.064623054719824 L302.29098833726965 41.138666409844134 L302.36503169239404 41.22497149333685 L302.42528367773366 41.32200866378176 L302.47021465187254 41.42824827976269 L302.4982949733945 41.54216069986341 L302.5079950008831 41.66221628266773 L302.5079950008831 43.12227968038184 L303.96805839859724 43.12227968038184 L304.0881139814016 43.13197970787051 L304.20202640150234 43.160060029392405 L304.3082660174831 43.204991003531276 L304.40530318792804 43.26524298887098 L304.4916082714208 43.3392863439953 L304.56565162654516 43.425591427488015 L304.6259036118849 43.52262859793292 L304.6708345860237 43.62886821391385 L304.6989149075456 43.742780634014565 L304.7086149350343 43.86283621681889 L304.69891490754566 43.98289179962321 L304.67083458602383 44.09680421972394 L304.6259036118848 44.20304383570484 L304.5656516265451 44.30008100614977 L304.49160827142083 44.386386089642485 L304.4053031879281 44.46042944476679 L304.30826601748316 44.520681430106485 L304.2020264015023 44.56561240424539 L304.0881139814016 44.593692725767276 L303.96805839859724 44.60339275325594 L302.5079950008831 44.60339275325594 L302.5079950008831 46.063456150970055 L302.4982949733944 46.18351173377438 L302.47021465187265 46.297424153875106 L302.4252836777336 46.403663769855996 L302.3650316923939 46.50070094030092 L302.29098833726965 46.587006023793634 L302.204683253777 46.661049378917944 L302.107646083332 46.72130136425764 L302.00140646735116 46.76623233839654 L301.8874940472504 46.79431265991842 L301.76743846444606 46.804012687407095 L301.6473828816418 46.794312659918425 L301.5334704615411 46.766232338396556 L301.4272308455601 46.721301364257634 L301.33019367511514 46.66104937891794 L301.24388859162246 46.58700602379364 L301.1698452364982 46.50070094030093 L301.10959325115846 46.403663769856 L301.0646622770196 46.297424153875085 L301.0365819554977 46.18351173377437 L301.026881928009 46.063456150970055 L301.026881928009 44.60339275325594 L299.5668185302949 44.60339275325594 L299.4467629474906 44.593692725767276 L299.33285052738995 44.5656124042454 L299.22661091140884 44.52068143010648 L299.12957374096396 44.46042944476678 L299.04326865747134 44.38638608964249 L298.96922530234707 44.300081006149775 L298.9089733170073 44.20304383570485 L298.8640423428684 44.096804219723936 L298.8359620213465 43.98289179962321 L298.8262619938578 43.86283621681889 L298.8359620213466 43.74278063401457 L298.86404234286846 43.62886821391386 L298.9089733170072 43.522628597932915 L298.969225302347 43.42559142748801 L299.0432686574713 43.3392863439953 L299.1295737409641 43.26524298887099 L299.2266109114089 43.20499100353128 L299.33285052738984 43.1600600293924 L299.4467629474906 43.131979707870514 L299.5668185302949 43.12227968038184 L301.026881928009 43.12227968038184 L301.026881928009 41.66221628266773 L301.0365819554977 41.542160699863416 L301.06466227701964 41.428248279762705 L301.1095932511585 41.32200866378176 L301.16984523649813 41.224971493336845 L301.24388859162246 41.138666409844134 L301.3301936751152 41.06462305471983 L301.4272308455601 41.00437106938011 L301.533470461541 40.959440095241234 L301.64738288164176 40.93135977371935 L301.76743846444606 40.921659746230674 L301.88749404725047 40.93135977371935 L302.00140646735116 40.959440095241234  Z "
       id="r5ROngAymB" />
    <path
       d="M323.37091277782184 46.52950288348556 C323.37091277782184 48.00127628213623 322.1760195098058 49.196169550152234 320.70424611115516 49.196169550152234 C319.2324727125045 49.196169550152234 318.0375794444885 48.00127628213623 318.0375794444885 46.52950288348556 C318.0375794444885 45.057729484834894 319.2324727125045 43.862836216818884 320.70424611115516 43.862836216818884 C322.1760195098058 43.862836216818884 323.37091277782184 45.057729484834894 323.37091277782184 46.52950288348556  Z "
       id="lp6uk5hRXq" />
    <clipPath
       id="clipPzntZrs0xh">
      <use
         xlink:href="#lp6uk5hRXq"
         opacity="1"
         id="use62" />
    </clipPath>
    <path
       d="M300.90522650331206 217.35228709313404 C300.90522650331206 215.88051369448337 299.71033323529605 214.68562042646735 298.2385598366454 214.68562042646735 C296.7667864379947 214.68562042646735 295.5718931699787 215.88051369448337 295.5718931699787 217.35228709313404 C295.5718931699787 218.8240604917847 296.7667864379947 220.0189537598007 298.2385598366454 220.0189537598007 C299.71033323529605 220.0189537598007 300.90522650331206 218.8240604917847 300.90522650331206 217.35228709313404  Z "
       id="Cd9xzIFcsN" />
    <path
       d="M290.90522650331206 210.68562042646738 C290.90522650331206 209.2138470278167 289.71033323529605 208.0189537598007 288.2385598366454 208.0189537598007 C286.7667864379947 208.0189537598007 285.5718931699787 209.2138470278167 285.5718931699787 210.68562042646738 C285.5718931699787 212.15739382511805 286.7667864379947 213.35228709313404 288.2385598366454 213.35228709313404 C289.71033323529605 213.35228709313404 290.90522650331206 212.15739382511805 290.90522650331206 210.68562042646738  Z "
       id="blqCOtWTRe" />
    <clipPath
       id="clipVyhjDBngMD">
      <use
         xlink:href="#blqCOtWTRe"
         opacity="1"
         id="use67" />
    </clipPath>
    <path
       d="M30.333614935034348 29.137346020740424 C30.333614935034348 30.609119419391092 29.13872166701834 31.8040126874071 27.66694826836767 31.8040126874071 C26.195174869717 31.8040126874071 25.000281601700994 30.609119419391092 25.000281601700994 29.137346020740424 C25.000281601700994 27.66557262208975 26.195174869717 26.470679354073745 27.66694826836767 26.470679354073745 C29.13872166701834 26.470679354073745 30.333614935034348 27.66557262208975 30.333614935034348 29.137346020740424  Z "
       id="jg36r5Vyuc" />
    <clipPath
       id="clipwfvvUHVoek">
      <use
         xlink:href="#jg36r5Vyuc"
         opacity="1"
         id="use71" />
    </clipPath>
    <path
       d="M40.33361493503432 22.470679354073773 C40.33361493503432 23.942452752724442 39.13872166701832 25.13734602074045 37.66694826836764 25.13734602074045 C36.19517486971697 25.13734602074045 35.00028160170097 23.942452752724442 35.00028160170097 22.470679354073773 C35.00028160170097 20.9989059554231 36.19517486971697 19.804012687407095 37.66694826836764 19.804012687407095 C39.13872166701832 19.804012687407095 40.33361493503432 20.9989059554231 40.33361493503432 22.470679354073773  Z "
       id="qqseEEhIMU" />
    <path
       d="M49.133759408527574 175.8799409325271 L49.23999902450847 175.92487190666589 L49.3370361949534 175.98512389200562 L49.42334127844611 176.05916724712995 L49.49738463357042 176.1454723306227 L49.55763661891012 176.2425095010676 L49.60256759304902 176.3487491170485 L49.6306479145709 176.46266153714922 L49.64034794205957 176.58271711995354 L49.64034794205957 178.04278051766767 L51.100411339773686 178.04278051766767 L51.22046692257801 178.05248054515636 L51.334379342678744 178.0805608666782 L51.44061895865965 178.125491840817 L51.53765612910457 178.18574382615677 L51.62396121259728 178.2597871812811 L51.6980045677216 178.3460922647738 L51.75825655306128 178.4431294352187 L51.80318752720018 178.54936905119965 L51.83126784872207 178.66328147130037 L51.84096787621075 178.7833370541047 L51.83126784872208 178.90339263690905 L51.8031875272002 179.01730505700976 L51.75825655306127 179.12354467299062 L51.69800456772159 179.22058184343555 L51.62396121259728 179.30688692692829 L51.537656129104576 179.38093028205262 L51.44061895865965 179.44118226739226 L51.33437934267873 179.4861132415312 L51.22046692257801 179.51419356305308 L51.100411339773686 179.52389359054177 L49.64034794205957 179.52389359054177 L49.64034794205957 180.98395698825584 L49.63064791457091 181.1040125710602 L49.60256759304903 181.21792499116094 L49.55763661891012 181.3241646071418 L49.49738463357041 181.42120177758676 L49.42334127844612 181.50750686107943 L49.337036194953406 181.58155021620377 L49.23999902450848 181.64180220154344 L49.13375940852757 181.68673317568235 L49.01984698842685 181.71481349720426 L48.89979140562252 181.7245135246929 L48.7797358228182 181.7148134972043 L48.66582340271749 181.68673317568238 L48.55958378673654 181.6418022015434 L48.46254661629164 181.58155021620374 L48.37624153279893 181.50750686107943 L48.30219817767462 181.42120177758676 L48.24194619233491 181.32416460714182 L48.19701521819603 181.21792499116088 L48.168934896674145 181.10401257106017 L48.159234869185475 180.98395698825584 L48.159234869185475 179.52389359054177 L46.69917147147137 179.52389359054177 L46.579115888667054 179.51419356305308 L46.46520346856634 179.48611324153123 L46.358963852585404 179.44118226739226 L46.26192668214048 179.3809302820526 L46.17562159864778 179.3068869269283 L46.101578243523484 179.22058184343558 L46.041326258183766 179.12354467299065 L45.99639528404488 179.01730505700974 L45.968314962522996 178.90339263690902 L45.95861493503432 178.7833370541047 L45.968314962522996 178.66328147130037 L45.99639528404488 178.54936905119968 L46.04132625818376 178.44312943521868 L46.10157824352347 178.3460922647738 L46.17562159864777 178.25978718128107 L46.2619266821405 178.1857438261568 L46.3589638525854 178.12549184081706 L46.46520346856633 178.08056086667818 L46.57911588866705 178.05248054515633 L46.69917147147137 178.04278051766767 L48.159234869185475 178.04278051766767 L48.159234869185475 176.58271711995354 L48.16893489667415 176.46266153714924 L48.197015218196036 176.34874911704856 L48.241946192334915 176.2425095010676 L48.30219817767461 176.14547233062268 L48.37624153279893 176.05916724712995 L48.46254661629165 175.98512389200565 L48.55958378673655 175.9248719066659 L48.66582340271748 175.87994093252706 L48.77973582281821 175.8518606110052 L48.89979140562252 175.8421605835165 L49.01984698842685 175.8518606110052 L49.133759408527574 175.8799409325271  Z "
       id="f6bOpGSXCh" />
    <path
       d="M40.94002256936665 184.94019979920265 C40.94002256936665 183.46842640055198 39.745129301350644 182.27353313253596 38.27335590269997 182.27353313253596 C36.8015825040493 182.27353313253596 35.6066892360333 183.46842640055198 35.6066892360333 184.94019979920265 C35.6066892360333 186.4119731978533 36.8015825040493 187.6068664658693 38.27335590269997 187.6068664658693 C39.745129301350644 187.6068664658693 40.94002256936665 186.4119731978533 40.94002256936665 184.94019979920265  Z "
       id="Dz1IDOjz9t" />
    <path
       d="M30.940022569366647 178.273533132536 C30.940022569366647 176.80175973388532 29.74512930135064 175.6068664658693 28.27335590269997 175.6068664658693 C26.8015825040493 175.6068664658693 25.606689236033294 176.80175973388532 25.606689236033294 178.273533132536 C25.606689236033294 179.74530653118666 26.8015825040493 180.94019979920265 28.27335590269997 180.94019979920265 C29.74512930135064 180.94019979920265 30.940022569366647 179.74530653118666 30.940022569366647 178.273533132536  Z "
       id="ToCMGP8PLy" />
    <clipPath
       id="clipnnBIrgTEJi">
      <use
         xlink:href="#ToCMGP8PLy"
         opacity="1"
         id="use78" />
    </clipPath>
    <path
       d="M216.11270650501103 191.24657234822226 C216.11270650501103 192.8333280436425 214.8244622004313 194.12157234822226 213.23770650501103 194.12157234822226 C211.65095080959077 194.12157234822226 210.36270650501103 192.8333280436425 210.36270650501103 191.24657234822226 C210.36270650501103 189.659816652802 211.65095080959077 188.37157234822226 213.23770650501103 188.37157234822226 C214.8244622004313 188.37157234822226 216.11270650501103 189.659816652802 216.11270650501103 191.24657234822226  Z "
       id="W9oHkw5LxL" />
    <path
       d="M204.05625996119755 141.0428916075906 L205.6830213347864 142.4385321100103 L207.51207142423414 143.5742195859507 L209.51457807423083 144.42112188010174 L211.66170912946603 144.95040683715305 L213.92463243462976 145.13324230179464 L216.1875557397935 144.95040683715305 L218.33468679502874 144.42112188010168 L220.33719344502546 143.57421958595071 L222.16624353447315 142.43853211001033 L223.793004908062 141.0428916075906 L225.1886454104818 139.4161302340018 L226.32433288642216 137.587080144554 L227.17123518057323 135.58457349455747 L227.40723518057317 134.62816927559203 L235.8883390577972 134.62816927559203 L235.8763390577972 134.78045942466213 L235.03293002690614 138.20188619745517 L233.68340169882248 141.39285576975436 L231.87369775632956 144.3074244587767 L229.6497618822104 146.899648581739 L227.0575377592481 149.1235844558582 L224.14296907022577 150.9332883983511 L220.9519994979267 152.2828167264347 L217.53057272513357 153.12622575732576 L213.92463243462984 153.41757180824126 L210.31869214412617 153.1262257573259 L206.8972653713332 152.28281672643485 L203.7062957990338 150.93328839835107 L200.79172711001164 149.12358445585818 L198.19950298704924 146.899648581739 L197.013 145.517 L192.16608655739492 150.30390654527545 L191.86844597632503 134.62816927559203 L208.040250881125 134.62816927559203 L202.904 139.70000000000002 L204.05625996119755 141.0428916075906  Z M220.95199949792672 110.06622154188221 L224.14296907022572 111.41574986996574 L227.05753775924813 113.22545381245868 L229.64976188221044 115.4493896865779 L231.064 117.098 L236.0184655016992 112.20591216832335 L236.31610608276915 127.88164943800678 L220.14430117796917 127.88164943800678 L225.174 122.915 L223.793004908062 121.30614666072623 L222.16624353447315 119.91050615830652 L220.33719344502543 118.77481868236616 L218.33468679502883 117.92791638821518 L216.1875557397935 117.39863143116386 L213.92463243462976 117.21579596652222 L211.661709129466 117.39863143116386 L209.5145780742308 117.92791638821515 L207.51207142423414 118.77481868236616 L205.68302133478642 119.91050615830653 L204.05625996119758 121.30614666072623 L202.66061945877786 122.93290803431503 L201.52493198283742 124.76195812376285 L200.67802968868656 126.76446477375947 L200.45174473163522 127.68322238396013 L191.96357976054693 127.68322238396013 L191.9729258114625 127.56857884365476 L192.81633484235357 124.14715207086176 L194.16586317043706 120.95618249856248 L195.97556711293004 118.04161380954017 L198.19950298704924 115.4493896865779 L200.79172711001164 113.2254538124587 L203.70629579903382 111.41574986996574 L206.8972653713331 110.06622154188219 L210.31869214412615 109.22281251099109 L213.92463243462984 108.9314664600756 L217.53057272513357 109.22281251099112 L220.95199949792672 110.06622154188221  Z "
       id="TkS9dZGcnu" />
  </defs>
  <g
     visibility="visible"
     id="g269">
    <g
       id="g267">
      <g
         id="g87">
        <use
           xlink:href="#FkQr8AsxKU"
           opacity="1"
           fill="url(#gradientfe6hLb9xvP)"
           id="use85"
           style="fill:#755dc4;fill-opacity:1;stroke:#000000;stroke-opacity:1" />
      </g>
      <g
         id="g91">
        <use
           xlink:href="#vjsKW5GKt2"
           opacity="1"
           fill="url(#gradientL1OecPDAHf)"
           id="use89"
           style="fill:#755dc4;fill-opacity:1;stroke:#000000;stroke-opacity:1" />
      </g>
      <g
         id="g95">
        <use
           xlink:href="#pmk4vsBMHu"
           opacity="1"
           fill="url(#gradientDlqhm8RqGk)"
           id="use93"
           style="fill:#755dc4;fill-opacity:1;stroke:#000000;stroke-opacity:1" />
      </g>
      <g
         id="g103">
        <use
           xlink:href="#wlYfnlnUnm"
           opacity="1"
           fill="#ffffff"
           fill-opacity="1"
           id="use97"
           style="stroke:#000000;stroke-opacity:1" />
        <g
           id="g101">
          <use
             xlink:href="#wlYfnlnUnm"
             opacity="1"
             fill-opacity="0"
             stroke="#5c717e"
             stroke-width="2"
             stroke-opacity="1"
             id="use99"
             style="stroke:#00000c;stroke-opacity:1" />
        </g>
      </g>
      <g
         id="g111">
        <use
           xlink:href="#VrDFvEh9Fm"
           opacity="1"
           fill="#ffffff"
           fill-opacity="1"
           id="use105"
           style="stroke:#000000;stroke-opacity:1" />
        <g
           id="g109">
          <use
             xlink:href="#VrDFvEh9Fm"
             opacity="1"
             fill-opacity="0"
             stroke="#5c717e"
             stroke-width="2"
             stroke-opacity="1"
             id="use107"
             style="stroke:#00000c;stroke-opacity:1" />
        </g>
      </g>
      <g
         id="g119">
        <use
           xlink:href="#KlBmpXJs5O"
           opacity="1"
           fill="#66aaff"
           fill-opacity="1"
           id="use113"
           style="fill:#f06292;fill-opacity:1" />
        <g
           clip-path="url(#clipqETs36pAE7)"
           id="g117">
          <use
             xlink:href="#KlBmpXJs5O"
             opacity="1"
             fill-opacity="0"
             stroke="#5c717e"
             stroke-width="2"
             stroke-opacity="1"
             id="use115"
             style="stroke:#00000c;stroke-opacity:1;fill:#755dc4;fill-opacity:1" />
        </g>
      </g>
      <g
         id="g123">
        <use
           xlink:href="#j8DysyHeal"
           opacity="1"
           fill="#5c717e"
           fill-opacity="1"
           id="use121"
           style="stroke:#000000;stroke-opacity:1;fill:#030000;fill-opacity:1" />
      </g>
      <g
         id="g127">
        <use
           xlink:href="#EraDGy1xAI"
           opacity="1"
           fill="#5c717e"
           fill-opacity="1"
           id="use125"
           style="stroke:#000000;stroke-opacity:1;fill:#030000;fill-opacity:1" />
      </g>
      <g
         id="g131">
        <use
           xlink:href="#u5j9u8csmt"
           opacity="1"
           fill="#5c717e"
           fill-opacity="1"
           id="use129"
           style="stroke:#000000;stroke-opacity:1;fill:#030000;fill-opacity:1" />
      </g>
      <g
         id="g139">
        <use
           xlink:href="#qubIOPsbu0"
           opacity="1"
           fill="#ffffff"
           fill-opacity="1"
           id="use133" />
        <g
           clip-path="url(#clipu3TO1f35Kh)"
           id="g137">
          <use
             xlink:href="#qubIOPsbu0"
             opacity="1"
             fill-opacity="0"
             stroke="#5c717e"
             stroke-width="1.5"
             stroke-opacity="1"
             id="use135"
             style="stroke:#000000;stroke-opacity:1" />
        </g>
      </g>
      <g
         id="g147">
        <use
           xlink:href="#tjUkwNjK7u"
           opacity="1"
           fill="url(#gradientbicsNA9pIs)"
           id="use141"
           style="fill:#f06292;fill-opacity:1" />
        <g
           id="g145">
          <use
             xlink:href="#tjUkwNjK7u"
             opacity="1"
             fill-opacity="0"
             stroke="#5c717e"
             stroke-width="2"
             stroke-opacity="1"
             id="use143"
             style="stroke:#000000;stroke-opacity:1;fill:#ffffff;fill-opacity:1" />
        </g>
      </g>
      <g
         id="g155">
        <use
           xlink:href="#BkBRXhLSSs"
           opacity="1"
           fill="#ffffff"
           fill-opacity="1"
           id="use149" />
        <g
           id="g153">
          <use
             xlink:href="#BkBRXhLSSs"
             opacity="1"
             fill-opacity="0"
             stroke="#5c717e"
             stroke-width="1"
             stroke-opacity="1"
             id="use151"
             style="stroke:#000000;stroke-opacity:1" />
        </g>
      </g>
      <g
         id="g163">
        <use
           xlink:href="#ICH3foGH39"
           opacity="1"
           fill="url(#gradientpdmOpAVqYV)"
           id="use157"
           style="fill:#ffffff;fill-opacity:1;stroke:#000000;stroke-opacity:1" />
        <g
           id="g161">
          <use
             xlink:href="#ICH3foGH39"
             opacity="1"
             fill-opacity="0"
             stroke="#5c717e"
             stroke-width="2"
             stroke-opacity="1"
             id="use159"
             style="stroke:#000013;stroke-opacity:1" />
        </g>
      </g>
      <g
         id="g171">
        <use
           xlink:href="#Vk2DCUUFYk"
           opacity="1"
           fill="#ffffff"
           fill-opacity="1"
           id="use165" />
        <g
           id="g169">
          <use
             xlink:href="#Vk2DCUUFYk"
             opacity="1"
             fill-opacity="0"
             stroke="#5c717e"
             stroke-width="2"
             stroke-opacity="1"
             id="use167"
             style="fill:#ffffff;fill-opacity:1;stroke:#000000;stroke-opacity:1" />
        </g>
      </g>
      <g
         id="g179">
        <use
           xlink:href="#hpC0GAcHMk"
           opacity="1"
           fill="#66aaff"
           fill-opacity="1"
           id="use173"
           style="fill:#f06292;fill-opacity:1" />
        <g
           clip-path="url(#clipKcVYuRPbm9)"
           id="g177">
          <use
             xlink:href="#hpC0GAcHMk"
             opacity="1"
             fill-opacity="0"
             stroke="#5c717e"
             stroke-width="2"
             stroke-opacity="1"
             id="use175"
             style="stroke:#000000;stroke-opacity:1;fill:#755dc4;fill-opacity:1" />
        </g>
      </g>
      <g
         id="g183">
        <use
           xlink:href="#c3jBPNOvrr"
           opacity="1"
           fill="#5c717e"
           fill-opacity="1"
           id="use181"
           style="stroke:#000000;stroke-opacity:1;fill:#030000;fill-opacity:1" />
      </g>
      <g
         id="g187">
        <use
           xlink:href="#XCmDpu1wkL"
           opacity="1"
           fill="#5c717e"
           fill-opacity="1"
           id="use185"
           style="stroke:#000000;stroke-opacity:1;fill:#030000;fill-opacity:1" />
      </g>
      <g
         id="g191">
        <use
           xlink:href="#ZurUYv7NHq"
           opacity="1"
           fill="#5c717e"
           fill-opacity="1"
           id="use189"
           style="stroke:#000000;stroke-opacity:1;fill:#030000;fill-opacity:1" />
      </g>
      <g
         id="g199">
        <use
           xlink:href="#ph9YgPzL6U"
           opacity="1"
           fill="#ffffff"
           fill-opacity="1"
           id="use193" />
        <g
           clip-path="url(#clipey1WdRr3l5)"
           id="g197">
          <use
             xlink:href="#ph9YgPzL6U"
             opacity="1"
             fill-opacity="0"
             stroke="#5c717e"
             stroke-width="1.5"
             stroke-opacity="1"
             id="use195"
             style="stroke:#000000;stroke-opacity:1" />
        </g>
      </g>
      <g
         id="g203">
        <use
           xlink:href="#wrjq63xa1O"
           opacity="1"
           fill="#b3d5ff"
           fill-opacity="1"
           id="use201"
           style="stroke:#000000;stroke-opacity:1;fill:#000000;fill-opacity:1" />
      </g>
      <g
         id="g207">
        <use
           xlink:href="#EjP2olrBgk"
           opacity="1"
           fill="#b3d5ff"
           fill-opacity="1"
           id="use205"
           style="stroke:#000000;stroke-opacity:1;fill:#000000;fill-opacity:1" />
      </g>
      <g
         id="g211">
        <use
           xlink:href="#r5ROngAymB"
           opacity="1"
           fill="#b3d5ff"
           fill-opacity="1"
           id="use209"
           style="stroke:#000000;stroke-opacity:1;fill:#000000;fill-opacity:1" />
      </g>
      <g
         id="g217">
        <g
           clip-path="url(#clipPzntZrs0xh)"
           id="g215">
          <use
             xlink:href="#lp6uk5hRXq"
             opacity="1"
             fill-opacity="0"
             stroke="#b3d5ff"
             stroke-width="2"
             stroke-opacity="1"
             id="use213"
             style="stroke:#000000;stroke-opacity:1;fill:#000000;fill-opacity:1" />
        </g>
      </g>
      <g
         id="g221">
        <use
           xlink:href="#Cd9xzIFcsN"
           opacity="1"
           fill="#b3d5ff"
           fill-opacity="1"
           id="use219"
           style="stroke:#000000;stroke-opacity:1;fill:#000000;fill-opacity:1" />
      </g>
      <g
         id="g227">
        <g
           clip-path="url(#clipVyhjDBngMD)"
           id="g225">
          <use
             xlink:href="#blqCOtWTRe"
             opacity="1"
             fill-opacity="0"
             stroke="#b3d5ff"
             stroke-width="2"
             stroke-opacity="1"
             id="use223"
             style="stroke:#000000;stroke-opacity:1;fill:#000000;fill-opacity:1" />
        </g>
      </g>
      <g
         id="g233">
        <g
           clip-path="url(#clipwfvvUHVoek)"
           id="g231">
          <use
             xlink:href="#jg36r5Vyuc"
             opacity="1"
             fill-opacity="0"
             stroke="#b3d5ff"
             stroke-width="2"
             stroke-opacity="1"
             id="use229"
             style="stroke:#000000;stroke-opacity:1;fill:#000000;fill-opacity:1" />
        </g>
      </g>
      <g
         id="g237">
        <use
           xlink:href="#qqseEEhIMU"
           opacity="1"
           fill="#b3d5ff"
           fill-opacity="1"
           id="use235"
           style="stroke:#000000;stroke-opacity:1;fill:#000000;fill-opacity:1" />
      </g>
      <g
         id="g241">
        <use
           xlink:href="#f6bOpGSXCh"
           opacity="1"
           fill="#b3d5ff"
           fill-opacity="1"
           id="use239"
           style="stroke:#000000;stroke-opacity:1;fill:#000000;fill-opacity:1" />
      </g>
      <g
         id="g245">
        <use
           xlink:href="#Dz1IDOjz9t"
           opacity="1"
           fill="#b3d5ff"
           fill-opacity="1"
           id="use243"
           style="stroke:#000000;stroke-opacity:1;fill:#000000;fill-opacity:1" />
      </g>
      <g
         id="g251">
        <g
           clip-path="url(#clipnnBIrgTEJi)"
           id="g249">
          <use
             xlink:href="#ToCMGP8PLy"
             opacity="1"
             fill-opacity="0"
             stroke="#b3d5ff"
             stroke-width="2"
             stroke-opacity="1"
             id="use247"
             style="stroke:#000000;stroke-opacity:1;fill:#000000;fill-opacity:1" />
        </g>
      </g>
      <g
         id="g259">
        <use
           xlink:href="#W9oHkw5LxL"
           opacity="1"
           fill="#66aaff"
           fill-opacity="1"
           id="use253"
           style="stroke:#000000;stroke-opacity:0.84422112;fill:none;fill-opacity:0.55778897" />
        <g
           id="g257">
          <use
             xlink:href="#W9oHkw5LxL"
             opacity="1"
             fill-opacity="0"
             stroke="#5c717e"
             stroke-width="1"
             stroke-opacity="1"
             id="use255"
             style="stroke:#000013;stroke-opacity:1;fill:#755dc4;fill-opacity:1" />
        </g>
      </g>
      <g
         visibility="hidden"
         id="g265">
        <g
           id="g263">
          <use
             xlink:href="#TkS9dZGcnu"
             opacity="1"
             fill-opacity="0"
             stroke="#99b2c0"
             stroke-width="0.5"
             stroke-opacity="1"
             id="use261"
             style="stroke:#000000;stroke-opacity:1;fill:#755dc4;fill-opacity:1" />
        </g>
      </g>
    </g>
  </g>
</svg>
